<?xml version="1.0" encoding="UTF-8"?>
<!DOCTYPE svg PUBLIC "-//W3C//DTD SVG 1.0//EN" "http://www.w3.org/TR/2001/REC-SVG-20010904/DTD/svg10.dtd">
<!-- Creator: CorelDRAW 2018 (64-Bit) -->
<svg xmlns="http://www.w3.org/2000/svg" xml:space="preserve" width="54.5938mm" height="51.4985mm" version="1.0" style="shape-rendering:geometricPrecision; text-rendering:geometricPrecision; image-rendering:optimizeQuality; fill-rule:evenodd; clip-rule:evenodd"
viewBox="0 0 5459.38 5149.85"
 xmlns:xlink="http://www.w3.org/1999/xlink">
 <defs>
  <style type="text/css">
   <![CDATA[
    .fil5 {fill:#FEFEFE}
    .fil3 {fill:#FEFEFE;fill-rule:nonzero}
    .fil4 {fill:#EF7F1A;fill-rule:nonzero}
    .fil0 {fill:url(#id0)}
    .fil2 {fill:url(#id1)}
    .fil1 {fill:url(#id2)}
   ]]>
  </style>
  <linearGradient id="id0" gradientUnits="userSpaceOnUse" x1="2748.03" y1="5149.85" x2="2748.03" y2="1742.9">
   <stop offset="0" style="stop-opacity:1; stop-color:#2794BE"/>
   <stop offset="0.988235" style="stop-opacity:1; stop-color:#03586B"/>
   <stop offset="1" style="stop-opacity:1; stop-color:#FEFEFE"/>
  </linearGradient>
  <linearGradient id="id1" gradientUnits="userSpaceOnUse" x1="2136" y1="2372.03" x2="2136" y2="0">
   <stop offset="0" style="stop-opacity:1; stop-color:#EF7F1A"/>
   <stop offset="1" style="stop-opacity:1; stop-color:#E74923"/>
  </linearGradient>
  <linearGradient id="id2" gradientUnits="userSpaceOnUse" x1="3379.08" y1="3770.03" x2="3379.08" y2="1438.79">
   <stop offset="0" style="stop-opacity:1; stop-color:#0397B4"/>
   <stop offset="1" style="stop-opacity:1; stop-color:#34D0F0"/>
  </linearGradient>
 </defs>
 <g id="Layer_x0020_1">
  <metadata id="CorelCorpID_0Corel-Layer"/>
  <g id="_913175008">
   <path class="fil0" d="M36.68 2563.51c0,0 1212.59,-49.12 2161.22,32.74 948.63,81.85 1575.55,24.56 1592.03,-409.24 -183.69,-48.02 -508.03,-110.67 -750.63,-458.32 583.87,146.67 915.62,-65.48 1121.86,90.03 310.48,-167.51 464.78,-126.77 767.15,-81.86 302.36,44.91 531.07,-30.77 531.07,-30.77 -0.74,-3.53 -197.73,82.44 -409.3,303.36 -202.52,211.48 -323.85,160.7 -699.2,210.31 -87.77,648.46 -229.62,1868.6 -1931.03,2101.38 0,0 -13.15,-155.06 -29.22,-152.65 -16.06,2.4 -134.99,498.48 21.74,981.36 -201.33,-61.05 -474.98,-375.39 -547.33,-621.93 -72.34,-246.55 -166.94,-270.18 -381.4,-327.48 -214.47,-57.3 -589.07,-237.36 -589.07,-237.36l500.02 -13.23c0,0 -1234.19,70.52 -1357.91,-1386.34z"/>
   <path class="fil1" d="M3115.35 3772.7l0 -0.2 -82.57 0c-29.34,-0.54 -58.2,-1.69 -86.77,-3.25l0 -0.28 -4.63 0c-14.96,-0.85 -30.01,-1.58 -44.76,-2.7l0 -0.82 -9.3 0c-24.24,-1.93 -48.18,-4.23 -71.84,-6.87l0 -0.19 -1.51 0c-8.98,-1.01 -17.81,-2.21 -26.71,-3.31l0 -0.22 -1.8 0c-7.62,-0.95 -15.32,-1.81 -22.89,-2.83l0 -0.7 -5.62 0c-7.61,-1.05 -15.05,-2.29 -22.6,-3.41l0 -0.11 -0.68 0c-34.49,-5.15 -68.39,-10.97 -101.63,-17.56l0 -0.08 -0.4 0c-5.74,-1.14 -11.54,-2.19 -17.24,-3.37l0 -0.16 -0.7 0c-26.06,-5.4 -51.62,-11.33 -76.91,-17.55l0 -0.09 -0.37 0c-4.61,-1.14 -9.16,-2.32 -13.74,-3.49l0 -0.04 -0.15 0c-12.94,-3.28 -25.92,-6.53 -38.66,-10.02l0 -0.56 -1.94 0c-4.1,-1.13 -8.09,-2.35 -12.17,-3.5l0 -0.03 -0.11 0c-27.49,-7.74 -54.49,-15.96 -81.03,-24.62l0 -0.07 -0.23 0c-3.44,-1.12 -6.92,-2.19 -10.35,-3.33l0 -0.2 -0.64 0c-3.29,-1.09 -6.67,-2.09 -9.94,-3.2l0 -0.33 -0.92 0c-3.26,-1.11 -6.42,-2.31 -9.67,-3.43l0 -0.1 -0.27 0c-41.06,-14.15 -80.91,-29.37 -119.67,-45.5l0 -0.36 -0.84 0c-29.76,-12.4 -58.94,-25.29 -87.36,-38.73l0 -0.07 -0.16 0c-2.28,-1.08 -4.62,-2.11 -6.89,-3.2l0 -0.33 -0.66 0c-2.16,-1.03 -4.24,-2.12 -6.4,-3.16l0 -0.37 -0.74 0c-21.32,-10.29 -42.19,-20.9 -62.76,-31.71l0 -0.04 -0.07 0c-13.03,-6.85 -26,-13.76 -38.73,-20.8l0 -0.36 -0.64 0c-22.63,-12.53 -44.7,-25.41 -66.39,-38.5l0 -0.31 -0.52 0c-5.7,-3.44 -11.49,-6.83 -17.12,-10.31l0 -0.27 -0.44 0c-9.39,-5.8 -18.57,-11.7 -27.78,-17.59l0 -0.05 -0.08 0c-17.94,-11.47 -35.57,-23.09 -52.84,-34.88l0 -0.4 -0.59 0c-3.31,-2.26 -6.71,-4.49 -9.99,-6.76l0 -0.3 -0.45 0c-26.55,-18.37 -52.2,-37.12 -77.16,-56.08l0 -0.36 -0.49 0c-4.53,-3.45 -9.14,-6.86 -13.62,-10.33l0 -0.25 -0.32 0c-25.43,-19.66 -50,-39.6 -73.77,-59.68l0 -0.3 -0.37 0c-19.28,-16.3 -37.88,-32.73 -56.07,-49.19l0 -0.19 -0.21 0c-59.71,-54.05 -113.64,-108.69 -162.07,-162.28 -17.13,-18.95 -33.63,-37.77 -49.39,-56.38l0 -0.07 -0.06 0c-205.21,-242.21 -295.33,-448.13 -295.33,-448.13l-3.92 -8.65c40.5,0.43 81.52,1 122.92,1.68l0 0.02 1.5 0c55.34,0.92 111.39,2.09 167.84,3.52l0 0.01 0.41 0c125.81,3.2 253.69,7.77 380.59,14.06l0 0.05 1.07 0c127.52,6.34 254.02,14.42 376.4,24.65l0 0.04 0.53 0 23.94 2.03c948.63,81.85 1575.55,24.56 1592.03,-409.24 -30.76,-8.04 -65.48,-16.5 -103.08,-26.63l0 -0.07 -0.25 0c-26.79,-7.22 -55.06,-15.31 -84.42,-24.69l0 -0.01 -0.03 0 -10.55 -3.42 0 -0.11 -0.33 0c-6.89,-2.26 -13.83,-4.6 -20.84,-7.01l0 -0.04 -0.12 0c-24.1,-8.32 -48.82,-17.59 -73.96,-28.04l0 -0.18 -0.42 0c-8.05,-3.35 -16.15,-6.82 -24.28,-10.42l0 -0.17 -0.39 0c-30.05,-13.33 -60.6,-28.44 -91.33,-45.68l0 -0.18 -0.32 0c-17.49,-9.83 -35.05,-20.36 -52.6,-31.65l0 -0.1 -0.16 0 -10.42 -6.8 0 -0.25 -0.37 0 -10.21 -6.85 0 -0.21 -0.31 0c-17.59,-11.97 -35.13,-24.76 -52.61,-38.42l0 -0.38 -0.49 0c-12.83,-10.04 -25.6,-20.56 -38.32,-31.57l0 -0.18 -0.21 0 -3.31 -2.87 0 -0.66 -0.76 0c-11.58,-10.15 -23.08,-20.73 -34.52,-31.74l0 -0.01 -0.01 0 -3.52 -3.38 0 -0.15 -0.15 0 -3.38 -3.31 0 -0.22 -0.22 0 -3.31 -3.28 0 -0.25 -0.25 0 -3.27 -3.24 0 -0.28 -0.28 0 -3.25 -3.24 0 -0.29 -0.28 0 -3.25 -3.34 0 -0.19 -0.19 0 -3.34 -3.43 0 -0.1 -0.09 0 -3.43 -3.52c-10.67,-11.11 -21.26,-22.67 -31.75,-34.62l0 -0.66 -0.58 0 -2.95 -3.36 0 -0.17 -0.15 0c-5.87,-6.75 -11.69,-13.65 -17.49,-20.67l0 -0.5 -0.41 0c-9.37,-11.36 -18.63,-23.1 -27.81,-35.19l0 -0.08 -0.06 0c-8.96,-11.82 -17.85,-23.97 -26.6,-36.51 354.13,88.96 615.48,45.93 812.37,32.98l0.98 0 0 -0.07c54.07,-3.53 103.25,-4.73 148.17,-0.31l0 0.38 3.9 0c14.43,1.54 28.4,3.7 41.96,6.55l0 0.5 2.32 0c12.52,2.71 24.67,6.06 36.48,10.1l0 0.49 1.46 0c3.07,1.07 6.1,2.22 9.13,3.38l0 0.14 0.37 0c2.24,0.87 4.47,1.76 6.68,2.69l0 0.84 1.96 0c11.45,4.88 22.54,10.54 33.32,17.03l0 0.61 1.02 0c3.22,1.95 6.4,4.01 9.56,6.12l0 0.94 1.44 0c3.63,2.44 7.21,4.99 10.74,7.66 30.04,-16.21 58.61,-30.45 86,-42.94l0.6 0 0 -0.27c10.72,-4.88 21.25,-9.49 31.63,-13.84l0.12 0 0 -0.05c5.73,-2.4 11.43,-4.76 17.06,-7.01l0.58 0 0 -0.23c28.08,-11.18 54.96,-20.41 81.02,-27.99l0.12 0 0 -0.04c19.21,-5.58 37.95,-10.23 56.39,-14.07l0.05 0 0 -0.01c22.6,-4.7 44.72,-8.17 66.63,-10.57l0.4 0 0 -0.05c37.84,-4.12 75.03,-5.06 112.89,-3.7l0 0.22 5.67 0c92.06,3.83 188.46,20.93 307.99,38.69 302.36,44.91 531.07,-30.77 531.07,-30.77 -0.74,-3.53 -197.73,82.44 -409.3,303.36 -18.67,19.5 -36.65,36.75 -54.21,52.08l-0.22 0 0 0.2c-16.68,14.55 -32.98,27.32 -49.12,38.6l-0.27 0 0 0.19c-3.37,2.35 -6.73,4.65 -10.09,6.87l-0.49 0 0 0.33c-3.49,2.31 -6.98,4.56 -10.47,6.73l-0.11 0 0 0.06c-8.08,5.03 -16.14,9.7 -24.22,14.05l-0.48 0 0 0.26 -6.23 3.26 -0.82 0 0 0.43 -6.18 3.1 -0.88 0 0 0.43c-10.26,5.02 -20.57,9.58 -30.98,13.68l-0.77 0 0 0.3c-121.79,47.74 -258.58,37.34 -503.66,69.74 -6.76,49.93 -13.85,103.27 -21.94,159.27l-0.04 0 0 0.28c-3.32,22.99 -6.82,46.43 -10.53,70.27l-0.05 0 0 0.32c-7.27,46.7 -15.37,94.92 -24.67,144.32l-0.03 0 0 0.16c-4.37,23.22 -9.02,46.7 -13.95,70.4l-0.16 0 0 0.78c-6.49,31.14 -13.52,62.66 -21.13,94.47l-0.03 0 0 0.14c-4.47,18.67 -9.17,37.44 -14.07,56.3l-0.05 0 0 0.21c-28.02,107.69 -63.37,218.07 -109.22,327.88l-0.14 0 0 0.33c-14.23,34.08 -29.51,68.1 -45.86,101.97l0 0.01 -3.41 7.05 -0.12 0 0 0.24c-5.71,11.7 -11.55,23.38 -17.52,35.04l-0.11 0 0 0.21c-17.57,34.27 -36.36,68.32 -56.4,102.09l-0.05 0 0 0.08c-3.48,5.86 -6.99,11.72 -10.54,17.56l-0.04 0 0 0.06c-5.73,9.41 -11.58,18.8 -17.52,28.16l-0.12 0 0 0.19c-18.8,29.64 -38.65,59 -59.59,88.01l-0.38 0 0 0.52c-17.91,24.79 -36.67,49.32 -56.24,73.56l-0.21 0 0 0.26c-5.65,7 -11.39,13.96 -17.18,20.91l-0.46 0 0 0.55c-5.76,6.9 -11.6,13.76 -17.49,20.61l-0.15 0 0 0.17c-9.12,10.59 -18.43,21.13 -27.91,31.58l-0.31 0 0 0.34 -2.86 3.19 -0.67 0 0 0.29c-4.55,1.16 -8.99,2.11 -13.53,3.24l-0.58 0 0 0.14c-14.61,3.64 -29.08,7.03 -43.55,10.44l-2.31 0 0 0.55c-4.12,0.97 -8.3,2.03 -12.41,2.98l-1.7 0 0 0.41c-4.31,0.99 -8.72,2.15 -13.02,3.12l-1.09 0 0 0.26c-5.09,1.15 -10.09,2.15 -15.16,3.27l-2.48 0 0 0.52c-34.31,7.57 -68.13,14.36 -101.65,20.64l-0.65 0 0 0.12c-6.28,1.18 -12.52,2.28 -18.77,3.41l-2.4 0 0 0.44c-5.67,1.02 -11.37,2.1 -17.02,3.09l-4.15 0 0 0.75c-5.06,0.88 -10.22,1.93 -15.26,2.78l-2.38 0 0 0.42c-6.85,1.15 -13.52,2 -20.34,3.1l-0.82 0 0 0.13c-23.4,3.74 -46.71,7.33 -69.71,10.46l-0.85 0 0 0.1c-9.36,1.27 -18.53,2.25 -27.82,3.42l-3.93 0 0 0.48c-8.29,1.03 -16.58,2.1 -24.82,3.05l-3.4 0 0 0.42c-9.3,1.07 -18.6,2.14 -27.83,3.11l-3.92 0 0 0.37c-24.83,2.57 -49.45,4.83 -73.8,6.69l-3.81 0 0 0.24c-17.57,1.31 -34.94,2.32 -52.26,3.28l-11.24 0 0 0.71c-30.99,1.59 -61.56,2.57 -91.72,3.02z"/>
   <path class="fil2" d="M2178.89 0c596.58,0 1137.06,239.86 1530.5,628.3 8.96,0.88 17.92,2.05 26.88,3.53l4.48 0.81c20.28,3.6 40.22,8.78 59.69,15.56 42.37,14.78 79.73,36.23 112.11,64.27 16.62,14.43 31.36,30.2 44.17,47.31l6.17 8.54c2.26,-12.46 5.58,-24.42 9.99,-35.85 10.4,-26.98 26.32,-50.05 47.76,-69.21 19.09,-17.08 41.07,-30.09 65.87,-39.02 23.88,-8.61 48.68,-12.87 74.33,-12.87 25.68,0 50.48,4.26 74.33,12.87 24.8,8.89 46.81,21.91 65.9,39.02 21.45,19.19 37.39,42.26 47.76,69.21 9,23.32 13.48,48.72 13.48,76.2l0 724.93c0,27.48 -4.48,52.88 -13.48,76.2 -10.37,26.91 -26.31,50 -47.76,69.2 -19.09,17.07 -41.1,30.11 -65.9,39.03 -23.85,8.58 -48.65,12.88 -74.33,12.88 -25.65,0 -50.45,-4.3 -74.33,-12.88 -24.8,-8.93 -46.78,-21.96 -65.87,-39.03 -18.76,-16.78 -33.3,-36.54 -43.6,-59.29l-0.81 0.71c-19.16,16.61 -39.79,30.97 -61.81,43.02 -22.4,12.22 -45.75,22.22 -70.02,29.91 -23.78,7.52 -49.08,13.21 -75.78,17.01 -25.96,3.68 -52.49,5.54 -79.55,5.54l-267.73 0c-57,0 -105.21,-17.25 -144.58,-51.74 -21.49,-18.84 -37.61,-40.99 -48.35,-66.43l-2.73 -7.23c-2.59,-6.88 -4.75,-13.86 -6.53,-20.99 -9.45,-1.62 -18.94,-3.32 -28.45,-5.12l-0.61 0.64c-23.87,25.26 -50.81,48.26 -80.74,68.97 -29.25,20.22 -60.88,37.68 -94.81,52.32 -33.99,14.67 -70.2,25.78 -108.46,33.26l-0.51 0.1 31.41 45.36c118.1,170.58 268.63,302.71 455.08,393.76 82.43,40.28 161.79,67.31 244.2,91.04 -171.72,279.75 -1145.83,191.23 -1413.85,167.91 -172.03,-14.95 -344.58,-25.16 -517.1,-32.5 -381.54,-16.27 -764.58,-18.99 -1146.42,-13.96 -175.84,2.3 -352.31,5.8 -528.03,12.87l-21.09 0.85c-6.37,-67.87 -9.77,-136.6 -9.77,-206.13 0,-189.48 24.23,-373.29 69.67,-548.55 -7.01,-10.2 -12.96,-21.1 -17.81,-32.67 -9.91,-23.6 -14.87,-48.72 -14.87,-75.32l0 -687.42c0,-54.08 15.56,-100.4 46.63,-138.96 19.58,-24.27 44.17,-42.33 73.75,-54.15 25.79,-10.3 54.13,-15.45 84.97,-15.45l322.33 0c26.2,0 50.69,3.95 73.4,11.92 394.32,-394.37 939.08,-638.28 1540.82,-638.28zm-1933.92 1174.43c4.58,-8.82 9.18,-17.6 13.88,-26.31 -5.33,-5.65 -10,-11.89 -13.88,-18.59l0 44.9zm0 -339.51l0 15.35c5.23,-9.03 11.88,-17.22 19.66,-24.27l-19.27 0c-0.26,2.5 -0.39,5.46 -0.39,8.92z"/>
   <path class="fil3" d="M668.64 1529.84c0,21.25 -7.8,41.25 -23.4,58.74 -15.6,18.75 -38.98,27.5 -68.88,27.5l-335.31 0c-28.6,0 -51.98,-8.75 -71.48,-26.25 -19.5,-16.24 -28.6,-38.74 -28.6,-67.49l0 -687.41c0,-31.25 7.8,-57.49 24.7,-78.74 16.9,-20 41.58,-30 76.68,-30l322.31 0c31.2,0 54.59,8.75 70.18,26.25 14.3,18.75 22.1,38.75 22.1,59.99 0,21.25 -7.8,41.25 -23.4,58.75 -15.59,18.74 -38.98,27.49 -68.88,27.49l-228.74 0 0 182.48 213.15 0c32.49,0 55.89,8.75 71.48,26.25 15.59,18.74 23.39,38.74 23.39,59.99 0,21.25 -7.8,41.24 -23.39,58.74 -16.89,18.75 -40.29,27.5 -71.48,27.5l-213.15 0 0 189.97 240.44 0c31.19,0 54.58,8.75 70.18,26.25 14.3,18.75 22.1,38.74 22.1,59.99zm480.87 -274.96c0,21.24 -6.5,39.99 -18.2,54.99 -12.98,15 -31.18,22.5 -55.88,22.5l-276.82 0c-24.7,0 -42.89,-7.5 -54.59,-22.5 -13,-15 -19.49,-33.75 -19.49,-54.99 0,-22.5 6.49,-41.25 19.49,-57.5 11.7,-14.99 29.89,-22.49 54.59,-22.49l276.82 0c24.7,0 42.9,7.5 55.88,22.49 11.7,16.25 18.2,35 18.2,57.5zm1139.8 286.21c0,27.5 -9.1,48.74 -27.28,64.99 -18.2,17.5 -40.3,25 -66.28,25 -32.5,0 -57.2,-7.5 -71.49,-22.5 -15.59,-13.75 -25.99,-36.24 -29.89,-64.99l-76.68 -516.18 -2.6 0 -155.96 531.18c-2.6,7.5 -6.5,15 -10.4,23.74 -5.2,8.75 -11.69,16.25 -19.49,23.75 -7.8,7.5 -18.2,13.75 -29.9,18.75 -11.69,3.75 -27.29,6.25 -44.18,6.25 -16.9,0 -32.5,-2.5 -44.19,-6.25 -11.69,-5 -22.09,-11.25 -29.89,-18.75 -7.8,-7.5 -14.3,-15 -18.2,-23.75 -5.2,-8.74 -9.1,-16.24 -11.7,-23.74l-155.96 -531.18 -2.6 0 -76.68 516.18c-3.9,28.75 -14.29,51.24 -28.58,64.99 -15.6,15 -40.3,22.5 -72.79,22.5 -25.99,0 -48.08,-7.5 -66.28,-25 -18.19,-16.25 -27.29,-37.49 -27.29,-64.99 0,-3.75 0,-6.25 0,-10 0,-3.75 0,-7.5 1.3,-11.25l120.86 -712.41c1.3,-11.24 6.5,-22.49 13,-33.74 6.5,-11.25 15.6,-22.5 27.3,-31.25 11.69,-8.75 24.69,-16.25 38.98,-22.49 14.3,-6.25 31.2,-8.75 48.1,-8.75 32.48,0 61.08,8.75 84.46,27.49 23.4,18.75 39,40 45.5,62.5l153.36 502.43 2.6 0 153.36 -502.43c6.49,-22.5 22.09,-43.75 45.49,-62.5 23.39,-18.74 51.98,-27.49 84.47,-27.49 16.89,0 32.49,2.5 48.09,8.75 14.3,6.24 27.3,13.74 38.99,22.49 11.69,8.75 20.79,20 27.29,31.25 6.5,11.25 11.7,22.5 13,33.74l120.86 712.41c1.3,3.75 1.3,7.5 1.3,11.25 0,3.75 0,6.25 0,10zm947.46 -369.95c0,64.99 -10.4,124.98 -32.5,181.22 -22.09,56.25 -51.98,103.74 -90.97,144.99 -38.99,41.24 -85.78,73.74 -140.36,97.48 -55.88,25 -116.98,36.25 -183.26,36.25 -66.28,0 -127.36,-11.25 -181.95,-36.25 -54.58,-23.74 -101.37,-56.24 -140.36,-97.48 -40.29,-41.25 -70.18,-88.74 -92.28,-144.99 -22.09,-56.24 -32.48,-116.23 -32.48,-181.22 0,-64.99 10.39,-126.24 32.48,-182.48 22.1,-56.24 51.99,-104.99 92.28,-146.23 38.99,-41.24 85.78,-72.49 140.36,-96.24 54.59,-23.74 115.67,-34.99 181.95,-34.99 64.98,0 124.78,12.5 180.66,36.24 54.58,23.75 101.37,57.49 141.66,98.74 38.99,41.24 70.18,89.99 92.27,146.23 22.1,56.24 32.5,114.99 32.5,178.73zm-202.75 0c0,-37.5 -5.2,-73.74 -15.6,-108.74 -10.4,-34.99 -25.99,-66.24 -45.48,-92.49 -20.8,-26.24 -46.8,-46.24 -76.68,-62.49 -31.2,-16.25 -66.28,-23.75 -106.58,-23.75 -40.28,0 -76.68,7.5 -106.56,23.75 -29.9,16.25 -55.89,36.25 -75.39,62.49 -20.79,26.25 -36.39,57.5 -46.79,92.49 -10.39,35 -15.59,71.24 -15.59,108.74 0,38.74 5.2,74.99 15.59,108.73 9.1,35 24.7,64.99 45.49,91.24 19.5,26.25 45.49,47.5 75.39,63.74 29.88,16.25 66.28,23.75 107.86,23.75 41.6,0 77.98,-7.5 107.88,-23.75 29.88,-16.24 55.88,-37.49 76.68,-63.74 19.49,-26.25 35.08,-56.24 45.48,-91.24 9.1,-33.74 14.3,-69.99 14.3,-108.73zm956.54 173.72c0,43.75 -7.79,82.49 -22.09,116.24 -14.3,33.75 -35.09,62.49 -61.08,84.99 -27.3,23.75 -58.49,41.24 -94.88,52.49 -37.68,11.25 -77.98,17.5 -123.46,17.5l-267.74 0c-29.89,0 -54.58,-8.75 -74.08,-26.25 -19.49,-16.24 -29.89,-39.99 -29.89,-68.74l0 -701.16c0,-29.99 9.1,-53.74 28.59,-69.99 19.5,-16.25 44.19,-23.75 74.08,-23.75l249.54 0c33.78,0 66.28,5 96.18,15 29.88,11.25 55.88,26.25 77.98,45 22.08,18.74 38.98,42.49 51.98,68.74 11.7,27.49 18.2,57.49 18.2,91.24 0,44.99 -9.1,82.49 -28.6,111.23 -19.5,28.75 -50.68,53.75 -92.28,72.49l0 2.5c27.3,3.75 52,11.25 76.68,23.75 24.7,12.5 45.5,27.5 63.69,46.24 16.89,18.75 31.19,41.25 41.59,64.99 10.4,23.75 15.59,50 15.59,77.49zm-271.63 -364.95c0,-28.74 -10.4,-51.24 -31.18,-66.24 -20.8,-15 -45.5,-22.5 -74.08,-22.5l-101.38 0 0 187.48 101.38 0c32.48,0 57.18,-8.75 76.68,-26.25 19.48,-16.25 28.58,-41.24 28.58,-72.49zm68.88 362.46c0,-28.75 -11.68,-52.5 -33.78,-71.25 -22.1,-18.74 -57.18,-27.49 -103.98,-27.49l-137.76 0 0 207.47 153.36 0c36.4,0 66.28,-10 88.38,-28.75 22.1,-18.74 33.78,-44.99 33.78,-79.98zm470.49 191.22c0,31.25 -9.1,56.24 -27.3,72.49 -19.5,16.25 -42.88,25 -70.18,25 -27.3,0 -50.68,-8.75 -68.88,-25 -19.5,-16.25 -28.6,-41.24 -28.6,-72.49l0 -724.91c0,-31.24 9.1,-56.24 28.6,-72.49 18.2,-16.24 41.58,-24.99 68.88,-24.99 27.3,0 50.68,8.75 70.18,24.99 18.2,16.25 27.3,41.25 27.3,72.49l0 724.91z"/>
   <path class="fil4" d="M4463.86 1647.15c0,6.49 -2.57,12.37 -7.4,17.01 -4.82,4.64 -10.94,7.11 -17.69,7.11 -6.76,0 -12.86,-2.47 -17.68,-7.11 -4.83,-4.64 -7.4,-10.52 -7.4,-17.01 0,-6.49 2.57,-12.37 7.4,-17.01 4.82,-4.64 10.92,-7.11 17.68,-7.11 6.75,0 12.87,2.47 17.69,7.11 4.83,4.64 7.4,10.52 7.4,17.01zm164 -6.49c0,5.87 -2.25,10.51 -6.43,14.53 -4.19,4.02 -9.33,7.11 -15.44,9.28 -6.11,2.47 -12.54,4.33 -18.97,5.25 -6.43,0.93 -11.58,1.55 -15.76,1.55 -12.54,0 -23.79,-2.16 -33.76,-6.8 -10.3,-4.64 -18.98,-10.83 -26.37,-18.56 -7.4,-7.73 -12.87,-17.01 -16.72,-27.52 -4.18,-10.21 -6.12,-21.34 -6.12,-32.78 0,-11.44 1.94,-22.27 6.12,-32.78 4.18,-10.2 9.65,-19.48 17.04,-27.52 7.39,-7.73 16.08,-14.23 26.37,-18.87 9.97,-4.64 21.22,-7.11 33.44,-7.11 4.5,0 9.97,0.31 16.72,1.24 6.44,0.93 12.54,2.47 18.66,4.64 5.78,2.16 10.93,5.25 15.11,8.66 4.18,3.71 6.11,8.34 6.11,13.6 0,2.17 -0.32,4.64 -1.29,7.11 -0.96,2.79 -1.93,4.95 -3.53,7.12 -1.61,2.16 -3.22,3.71 -5.47,4.95 -2.25,1.54 -4.51,2.16 -7.4,2.16 -2.89,0 -5.79,-0.62 -8.68,-1.55 -2.89,-0.92 -5.47,-1.85 -8.36,-2.78 -2.89,-0.93 -6.11,-2.16 -9.33,-3.09 -3.21,-0.93 -6.75,-1.24 -10.29,-1.24 -6.75,0 -12.22,1.24 -17.04,3.71 -4.82,2.79 -9,6.19 -12.22,10.21 -3.22,4.33 -5.46,9.27 -7.07,14.53 -1.62,5.57 -2.57,11.13 -2.57,17.01 0,5.57 0.95,11.13 2.57,16.39 1.61,5.26 4.18,10.21 7.71,14.23 3.21,4.32 7.39,7.73 12.22,10.2 4.82,2.78 10.29,4.02 16.4,4.02 2.9,0 6.11,-0.62 9.65,-1.55 3.53,-0.92 6.76,-1.85 9.97,-3.09 3.21,-1.24 6.1,-2.47 9.01,-3.4 2.56,-0.93 4.5,-1.24 5.78,-1.24 5.47,0 10.29,1.86 14.15,5.57 3.86,4.02 5.79,8.66 5.79,13.92zm175.26 -55.05c0,11.44 -1.93,22.57 -5.79,32.78 -4.18,10.51 -9.65,19.79 -17.05,27.52 -7.39,7.73 -16.07,13.92 -26.04,18.56 -10.3,4.64 -21.55,6.8 -34.09,6.8 -12.54,0 -23.79,-2.16 -33.76,-6.8 -10.3,-4.64 -18.98,-10.83 -26.38,-18.56 -7.39,-7.73 -12.86,-17.01 -16.72,-27.52 -4.18,-10.21 -6.11,-21.34 -6.11,-32.78 0,-11.44 1.93,-22.27 6.11,-32.78 4.18,-10.2 9.65,-19.48 17.05,-27.52 7.39,-7.73 16.07,-14.23 26.37,-18.87 9.97,-4.64 21.22,-7.11 33.44,-7.11 12.22,0 23.47,2.47 33.76,7.11 9.98,4.64 18.66,11.14 26.05,18.87 7.4,8.04 12.87,17.32 17.05,27.52 4.18,10.51 6.11,21.34 6.11,32.78zm-46.32 0c0,-5.26 -0.63,-10.51 -1.92,-16.08 -1.61,-5.26 -3.86,-10.21 -6.76,-14.54 -2.89,-4.32 -6.75,-8.04 -11.25,-10.82 -4.82,-2.78 -10.28,-4.02 -16.72,-4.02 -6.43,0 -11.9,1.24 -16.4,4.02 -4.82,2.78 -8.68,6.5 -11.57,10.82 -2.9,4.33 -5.15,9.28 -6.44,14.54 -1.61,5.57 -2.25,10.82 -2.25,16.08 0,5.26 0.64,10.82 2.25,16.08 1.61,5.26 3.86,10.21 6.76,14.23 2.89,4.33 6.75,7.73 11.57,10.51 4.51,2.78 9.97,4.02 16.08,4.02 6.11,0 11.57,-1.24 16.4,-4.02 4.5,-2.78 8.36,-6.18 11.26,-10.51 2.89,-4.02 5.14,-8.97 6.75,-14.23 1.61,-5.26 2.24,-10.82 2.24,-16.08zm313.54 60.92c0,7.42 -2.25,13.3 -6.43,17.94 -4.18,4.64 -9.97,6.8 -16.72,6.8 -6.75,0 -12.55,-2.16 -16.73,-6.8 -4.18,-4.64 -6.42,-10.52 -6.42,-17.94l0 -79.47c0,-9.28 -2.26,-16.7 -7.08,-22.27 -4.83,-5.57 -11.58,-8.35 -19.94,-8.35 -8.68,0 -15.11,2.78 -19.93,8.35 -4.83,5.57 -7.41,12.99 -7.41,22.27l0 79.47c0,7.42 -2.24,13.3 -6.42,17.94 -4.18,4.64 -9.97,6.8 -16.72,6.8 -6.76,0 -12.54,-2.16 -16.72,-6.8 -4.18,-4.64 -6.44,-10.52 -6.44,-17.94l0 -79.47c0,-9.28 -2.25,-16.7 -7.07,-22.27 -4.83,-5.57 -11.57,-8.35 -19.94,-8.35 -9.65,0 -16.72,2.78 -20.9,8.35 -4.18,5.57 -6.43,12.99 -6.43,22.27l0 79.47c0,7.42 -2.25,13.3 -6.43,17.94 -4.18,4.64 -9.97,6.8 -16.73,6.8 -6.75,0 -12.54,-2.16 -16.72,-6.8 -4.18,-4.64 -6.43,-10.52 -6.43,-17.94l0 -122.46c0,-7.42 2.25,-13.3 6.43,-17.94 4.18,-4.63 9.97,-6.8 16.72,-6.8 6.11,0 10.94,1.86 14.47,5.26 3.54,3.4 5.8,8.04 6.75,13.3 11.59,-12.37 26.05,-18.56 43.09,-18.56 19.63,0 35.38,7.42 47.92,22.58 6.44,-7.12 14.15,-12.68 23.48,-16.7 9,-4.02 17.37,-5.88 25.4,-5.88 9.32,0 18,1.24 25.73,3.71 7.72,2.78 14.47,6.5 19.94,11.44 5.46,5.26 9.97,11.45 13.18,18.87 2.89,7.42 4.5,16.08 4.5,25.97l0 87.21zm81.36 0.62c0,6.49 -2.57,12.37 -7.39,17.01 -4.83,4.64 -10.94,7.11 -17.69,7.11 -6.76,0 -12.86,-2.47 -17.69,-7.11 -4.82,-4.64 -7.39,-10.52 -7.39,-17.01 0,-6.49 2.57,-12.37 7.39,-17.01 4.83,-4.64 10.93,-7.11 17.69,-7.11 6.75,0 12.86,2.47 17.69,7.11 4.82,4.64 7.39,10.52 7.39,17.01zm132.49 -124.01c0,3.71 -0.64,6.5 -2.25,8.66 -1.61,2.17 -3.85,3.71 -6.43,5.26 -2.57,1.54 -5.47,2.78 -8.69,3.71 -3.53,0.93 -6.74,2.47 -10.28,4.02 -3.55,1.55 -6.76,3.09 -9.97,4.64 -3.54,1.54 -6.44,3.71 -9.01,5.87 -2.89,2.17 -4.82,4.95 -6.42,8.04 -1.62,3.1 -2.58,6.81 -2.58,11.14l0 72.05c0,7.42 -2.25,13.3 -6.43,17.94 -4.18,4.64 -9.97,6.8 -16.72,6.8 -6.76,0 -12.54,-2.16 -16.72,-6.8 -4.18,-4.64 -6.44,-10.52 -6.44,-17.94l0 -124.93c0,-7.43 2.57,-12.99 7.72,-16.7 4.82,-3.71 10.29,-5.57 16.07,-5.57 6.12,0 11.59,1.24 16.09,3.71 4.18,2.78 6.43,7.73 6.43,14.85l0.64 0c4.18,-6.19 9.01,-10.83 14.16,-13.92 4.82,-3.09 10.92,-4.64 18.32,-4.64 5.47,0 10.61,1.86 15.44,5.88 4.82,4.02 7.07,9.89 7.07,17.93zm158.22 123.39c0,7.42 -2.25,13.3 -6.43,17.94 -4.18,4.64 -9.97,6.8 -16.72,6.8 -6.12,0 -10.94,-1.85 -14.48,-5.26 -3.53,-3.4 -5.79,-7.73 -6.75,-12.98 -4.5,5.87 -10.29,10.51 -17.36,13.6 -7.41,3.09 -16.41,4.64 -27.34,4.64 -9,0 -17.37,-1.24 -25.08,-4.02 -8.04,-2.78 -14.8,-6.49 -20.26,-11.75 -5.47,-5.26 -9.97,-11.44 -13.18,-18.86 -3.22,-7.43 -4.83,-15.78 -4.83,-25.36l0 -87.21c0,-7.42 2.25,-13.3 6.43,-17.94 4.18,-4.63 9.97,-6.8 16.72,-6.8 6.76,0 12.55,2.17 16.73,6.8 4.18,4.64 6.43,10.52 6.43,17.94l0 79.48c0,10.51 2.89,18.24 9,23.19 5.79,4.95 12.87,7.42 21.23,7.42 9.65,0 17.04,-3.09 22.19,-8.97 4.82,-5.87 7.39,-12.98 7.39,-21.64l0 -79.48c0,-7.42 2.25,-13.3 6.43,-17.94 4.18,-4.63 9.97,-6.8 16.73,-6.8 6.75,0 12.54,2.17 16.72,6.8 4.18,4.64 6.43,10.52 6.43,17.94l0 122.46z"/>
   <path class="fil3" d="M316.57 1949.83c0,6.06 -1.7,10.92 -5.1,14.07 -3.64,3.15 -8,4.85 -13.1,4.85 -5.09,0 -9.46,-1.7 -12.85,-4.85 -3.64,-3.15 -5.34,-8.01 -5.34,-14.07l0 -91.94 -0.48 0 -78.6 102.86c-2.18,2.66 -4.61,4.85 -7.52,6.06 -2.91,1.21 -5.58,1.94 -7.76,1.94 -5.09,0 -9.46,-1.7 -12.86,-4.85 -3.64,-3.15 -5.33,-8.01 -5.33,-14.07l0 -140.69c0,-6.07 1.69,-10.92 5.33,-14.07 3.4,-3.16 7.77,-4.86 12.86,-4.86 5.09,0 9.46,1.7 13.1,4.86 3.39,3.15 5.09,8 5.09,14.07l0 93.15 0.49 0 78.59 -104.07c2.19,-2.67 4.61,-4.85 7.52,-6.06 2.91,-1.22 5.58,-1.95 7.76,-1.95 5.1,0 9.46,1.7 13.1,4.86 3.4,3.15 5.1,8 5.1,14.07l0 140.69zm170.77 0c0,6.06 -1.7,10.92 -5.1,14.07 -3.64,3.15 -8,4.85 -13.1,4.85 -5.09,0 -9.46,-1.7 -12.85,-4.85 -3.64,-3.15 -5.34,-8.01 -5.34,-14.07l0 -54.34 -76.17 0 0 54.34c0,6.06 -1.7,10.92 -5.09,14.07 -3.64,3.15 -8.01,4.85 -13.1,4.85 -5.09,0 -9.46,-1.7 -12.86,-4.85 -3.64,-3.15 -5.33,-8.01 -5.33,-14.07l0 -140.69c0,-6.07 1.69,-10.92 5.33,-14.07 3.4,-3.16 7.77,-4.86 12.86,-4.86 5.09,0 9.46,1.7 13.1,4.86 3.39,3.15 5.09,8 5.09,14.07l0 52.88 76.17 0 0 -52.88c0,-6.07 1.7,-10.92 5.34,-14.07 3.39,-3.16 7.76,-4.86 12.85,-4.86 5.1,0 9.46,1.7 13.1,4.86 3.4,3.15 5.1,8 5.1,14.07l0 140.69zm131.01 -139.97c0,4.13 -1.22,8.01 -3.88,11.4 -2.67,3.64 -6.8,5.34 -12.62,5.34l-26.44 0 0 123.23c0,6.06 -1.7,10.92 -5.09,14.07 -3.64,3.15 -8.01,4.85 -13.1,4.85 -5.1,0 -9.46,-1.7 -12.86,-4.85 -3.64,-3.15 -5.33,-8.01 -5.33,-14.07l0 -123.23 -26.45 0c-5.82,0 -9.94,-1.7 -12.61,-5.34 -2.67,-3.39 -3.88,-7.27 -3.88,-11.4 0,-4.12 1.45,-8 4.37,-11.64 2.91,-3.4 7.03,-5.09 12.12,-5.09l89.27 0c5.1,0 9.22,1.69 12.13,5.09 2.91,3.64 4.37,7.52 4.37,11.64zm106.49 139.24c0,4.13 -1.45,8.01 -4.36,11.4 -2.92,3.64 -7.28,5.34 -12.86,5.34l-62.59 0c-5.33,0 -9.7,-1.7 -13.34,-5.09 -3.64,-3.16 -5.33,-7.52 -5.33,-13.1l0 -133.42c0,-6.06 1.45,-11.16 4.6,-15.28 3.16,-3.88 7.77,-5.82 14.32,-5.82l60.16 0c5.82,0 10.18,1.69 13.09,5.09 2.67,3.64 4.13,7.52 4.13,11.64 0,4.13 -1.46,8.01 -4.37,11.4 -2.91,3.64 -7.28,5.34 -12.85,5.34l-42.7 0 0 35.42 39.78 0c6.07,0 10.44,1.7 13.35,5.09 2.91,3.64 4.36,7.52 4.36,11.65 0,4.12 -1.45,8 -4.36,11.4 -3.16,3.63 -7.52,5.33 -13.35,5.33l-39.78 0 0 36.87 44.88 0c5.82,0 10.19,1.7 13.1,5.1 2.67,3.64 4.12,7.52 4.12,11.64zm137.78 -98c0,8.98 -1.7,16.98 -4.85,24.02 -3.15,7.03 -7.52,13.1 -13.1,17.95 -5.58,5.09 -11.88,8.73 -19.16,11.4 -7.52,2.67 -15.28,4.12 -23.53,4.12l-26.93 0 0 41.24c0,6.06 -1.7,10.92 -5.09,14.07 -3.64,3.15 -8.01,4.85 -13.1,4.85 -5.09,0 -9.46,-1.7 -12.86,-4.85 -3.64,-3.15 -5.33,-8.01 -5.33,-14.07l0 -137.78c0,-5.58 1.69,-10.19 4.85,-13.83 3.15,-3.4 8,-5.09 14.07,-5.09l42.93 0c8.98,0 17.23,1.45 24.75,4.12 7.52,2.67 14.06,6.55 19.64,11.64 5.58,5.1 9.95,11.4 13.1,18.44 3.16,7.03 4.61,15.04 4.61,23.77zm-37.84 -0.24c0,-7.28 -2.18,-13.34 -6.55,-18.44 -4.61,-4.85 -10.67,-7.27 -18.43,-7.27l-24.75 0 0 51.42 24.75 0c7.76,0 13.82,-2.42 18.43,-7.52 4.37,-4.85 6.55,-10.91 6.55,-18.19zm198.43 98.97c0,6.06 -1.7,10.92 -5.1,14.07 -3.64,3.15 -8,4.85 -13.1,4.85 -5.09,0 -9.46,-1.7 -12.85,-4.85 -3.64,-3.15 -5.34,-8.01 -5.34,-14.07l0 -54.34 -76.17 0 0 54.34c0,6.06 -1.7,10.92 -5.09,14.07 -3.64,3.15 -8.01,4.85 -13.1,4.85 -5.09,0 -9.46,-1.7 -12.86,-4.85 -3.64,-3.15 -5.33,-8.01 -5.33,-14.07l0 -140.69c0,-6.07 1.69,-10.92 5.33,-14.07 3.4,-3.16 7.77,-4.86 12.86,-4.86 5.09,0 9.46,1.7 13.1,4.86 3.39,3.15 5.09,8 5.09,14.07l0 52.88 76.17 0 0 -52.88c0,-6.07 1.7,-10.92 5.34,-14.07 3.39,-3.16 7.76,-4.86 12.85,-4.86 5.1,0 9.46,1.7 13.1,4.86 3.4,3.15 5.1,8 5.1,14.07l0 140.69zm120.31 -0.73c0,4.13 -1.45,8.01 -4.36,11.4 -2.92,3.64 -7.28,5.34 -12.86,5.34l-62.59 0c-5.33,0 -9.7,-1.7 -13.34,-5.09 -3.64,-3.16 -5.33,-7.52 -5.33,-13.1l0 -133.42c0,-6.06 1.45,-11.16 4.6,-15.28 3.16,-3.88 7.77,-5.82 14.32,-5.82l60.16 0c5.82,0 10.18,1.69 13.09,5.09 2.67,3.64 4.13,7.52 4.13,11.64 0,4.13 -1.46,8.01 -4.37,11.4 -2.91,3.64 -7.28,5.34 -12.85,5.34l-42.7 0 0 35.42 39.78 0c6.07,0 10.44,1.7 13.35,5.09 2.91,3.64 4.36,7.52 4.36,11.65 0,4.12 -1.45,8 -4.36,11.4 -3.16,3.63 -7.52,5.33 -13.35,5.33l-39.78 0 0 36.87 44.88 0c5.82,0 10.19,1.7 13.1,5.1 2.67,3.64 4.12,7.52 4.12,11.64zm122.26 -139.24c0,4.13 -1.22,8.01 -3.88,11.4 -2.67,3.64 -6.8,5.34 -12.62,5.34l-26.44 0 0 123.23c0,6.06 -1.7,10.92 -5.09,14.07 -3.64,3.15 -8.01,4.85 -13.1,4.85 -5.1,0 -9.46,-1.7 -12.86,-4.85 -3.64,-3.15 -5.33,-8.01 -5.33,-14.07l0 -123.23 -26.45 0c-5.82,0 -9.94,-1.7 -12.61,-5.34 -2.67,-3.39 -3.88,-7.27 -3.88,-11.4 0,-4.12 1.45,-8 4.37,-11.64 2.91,-3.4 7.03,-5.09 12.12,-5.09l89.27 0c5.1,0 9.22,1.69 12.13,5.09 2.91,3.64 4.37,7.52 4.37,11.64zm268.06 141.43c0,5.33 -1.7,9.46 -5.09,12.61 -3.4,3.4 -7.52,4.85 -12.38,4.85 -6.06,0 -10.67,-1.45 -13.34,-4.37 -2.91,-2.66 -4.85,-7.03 -5.58,-12.61l-14.31 -100.18 -0.48 0 -29.11 103.09c-0.49,1.46 -1.22,2.91 -1.94,4.61 -0.97,1.7 -2.19,3.15 -3.64,4.61 -1.46,1.45 -3.4,2.67 -5.58,3.64 -2.19,0.73 -5.1,1.21 -8.25,1.21 -3.15,0 -6.06,-0.48 -8.25,-1.21 -2.18,-0.97 -4.12,-2.19 -5.58,-3.64 -1.45,-1.46 -2.66,-2.91 -3.39,-4.61 -0.97,-1.7 -1.7,-3.15 -2.19,-4.61l-29.1 -103.09 -0.49 0 -14.31 100.18c-0.73,5.58 -2.67,9.95 -5.34,12.61 -2.91,2.92 -7.52,4.37 -13.58,4.37 -4.85,0 -8.98,-1.45 -12.37,-4.85 -3.4,-3.15 -5.1,-7.28 -5.1,-12.61 0,-0.73 0,-1.22 0,-1.95 0,-0.72 0,-1.45 0.24,-2.18l22.56 -138.27c0.25,-2.18 1.22,-4.36 2.43,-6.55 1.21,-2.18 2.91,-4.36 5.09,-6.06 2.19,-1.7 4.61,-3.15 7.28,-4.37 2.67,-1.21 5.82,-1.7 8.98,-1.7 6.06,0 11.4,1.7 15.76,5.34 4.37,3.64 7.28,7.76 8.49,12.13l28.63 97.52 0.48 0 28.63 -97.52c1.21,-4.37 4.12,-8.49 8.49,-12.13 4.36,-3.64 9.7,-5.34 15.76,-5.34 3.16,0 6.07,0.49 8.98,1.7 2.67,1.22 5.09,2.67 7.28,4.37 2.18,1.7 3.88,3.88 5.09,6.06 1.21,2.19 2.18,4.37 2.43,6.55l22.56 138.27c0.24,0.73 0.24,1.46 0.24,2.18 0,0.73 0,1.22 0,1.95zm159.38 1.45c0,4.61 -1.7,8.49 -4.85,11.4 -3.39,3.16 -7.28,4.61 -11.88,4.61 -5.1,0 -8.98,-1.21 -11.65,-3.64 -2.67,-2.18 -4.85,-5.33 -6.06,-8.97l-7.77 -24.26 -67.43 0 -7.76 24.01c-1.22,3.64 -3.16,6.8 -5.83,9.22 -2.66,2.43 -6.55,3.64 -11.64,3.64 -4.85,0 -8.97,-1.7 -12.61,-4.85 -3.64,-3.15 -5.34,-7.28 -5.34,-12.13 0,-1.94 0.24,-3.64 0.73,-5.09 0.24,-1.22 0.73,-2.19 0.97,-2.91l49.24 -133.42c2.18,-5.58 5.34,-10.43 9.95,-14.31 4.61,-3.88 9.94,-5.83 16.01,-5.83 6.55,0 11.88,1.95 16.25,5.58 4.37,3.89 7.52,8.74 9.7,14.56l48.03 133.42c0.73,1.94 1.46,3.63 1.7,5.33 0.24,1.7 0.24,2.91 0.24,3.64zm-75.68 -124.68l-0.49 0 -23.04 70.34 46.09 0 -22.56 -70.34zm183.87 -18.2c0,4.13 -1.21,8.01 -3.88,11.4 -2.67,3.64 -6.79,5.34 -12.37,5.34l-44.64 0 0 123.23c0,6.06 -1.7,10.92 -5.09,14.07 -3.64,3.15 -8.01,4.85 -13.1,4.85 -5.09,0 -9.46,-1.7 -12.86,-4.85 -3.64,-3.15 -5.33,-8.01 -5.33,-14.07l0 -137.78c0,-5.1 1.69,-9.46 4.85,-13.34 3.15,-3.64 8,-5.58 14.07,-5.58l62.1 0c5.33,0 9.46,1.69 12.13,5.09 2.66,3.64 4.12,7.52 4.12,11.64zm131.24 142.88c0,4.61 -1.7,8.49 -4.85,11.4 -3.39,3.16 -7.28,4.61 -11.88,4.61 -5.1,0 -8.98,-1.21 -11.65,-3.64 -2.67,-2.18 -4.85,-5.33 -6.06,-8.97l-7.77 -24.26 -67.43 0 -7.76 24.01c-1.22,3.64 -3.16,6.8 -5.83,9.22 -2.66,2.43 -6.55,3.64 -11.64,3.64 -4.85,0 -8.97,-1.7 -12.61,-4.85 -3.64,-3.15 -5.34,-7.28 -5.34,-12.13 0,-1.94 0.24,-3.64 0.73,-5.09 0.24,-1.22 0.73,-2.19 0.97,-2.91l49.24 -133.42c2.18,-5.58 5.34,-10.43 9.95,-14.31 4.61,-3.88 9.94,-5.83 16.01,-5.83 6.55,0 11.88,1.95 16.25,5.58 4.37,3.89 7.52,8.74 9.7,14.56l48.03 133.42c0.73,1.94 1.46,3.63 1.7,5.33 0.24,1.7 0.24,2.91 0.24,3.64zm-75.68 -124.68l-0.49 0 -23.04 70.34 46.09 0 -22.56 -70.34zm82.71 -12.13c0,-4.85 1.95,-8.98 5.83,-12.13 3.64,-3.15 8.49,-5.82 14.07,-8.01 5.58,-1.94 11.4,-3.39 17.7,-4.36 6.07,-0.73 11.65,-1.22 16.26,-1.22 8.73,0 16.25,1.22 22.8,3.4 6.55,2.43 11.88,5.58 16.25,9.46 4.13,4.13 7.28,8.73 9.46,14.07 2.18,5.58 3.16,11.4 3.16,17.47 0,7.76 -1.7,15.04 -4.86,21.83 -3.15,6.79 -8.73,11.88 -16.49,15.28 4.61,1.21 8.97,3.15 12.86,6.06 3.88,2.92 7.27,6.31 9.94,10.19 2.67,4.13 4.61,8.49 6.07,13.1 1.45,4.61 2.18,9.46 2.18,14.07 0,7.28 -1.46,14.07 -4.37,20.62 -2.91,6.55 -7.03,12.13 -12.37,16.98 -5.34,5.09 -11.64,8.98 -19.16,11.64 -7.52,2.92 -16.01,4.37 -25.23,4.37 -4.61,0 -10.43,-0.48 -16.98,-1.21 -6.55,-0.73 -13.1,-2.43 -19.16,-4.61 -6.07,-2.18 -11.41,-5.1 -15.53,-8.73 -4.37,-3.64 -6.55,-8.49 -6.55,-14.07 0,-4.61 1.46,-8.74 4.37,-12.13 2.91,-3.4 6.79,-5.1 11.88,-5.1 2.91,0 5.58,0.73 8.25,1.94 2.43,1.22 5.1,2.67 8.25,4.13 3.15,1.7 6.55,3.15 10.43,4.36 3.88,1.22 8.49,1.95 14.07,1.95 6.31,0 11.64,-2.19 16.25,-6.55 4.37,-4.13 6.55,-9.46 6.55,-16.01 0,-4.61 -0.73,-8.25 -1.94,-11.16 -1.46,-2.67 -3.4,-4.85 -5.58,-6.55 -2.42,-1.7 -5.09,-2.67 -8,-3.4 -2.91,-0.48 -5.83,-0.73 -8.74,-0.73l-7.27 0c-4.61,0 -8.74,-1.69 -12.13,-5.09 -3.4,-3.4 -5.1,-7.52 -5.1,-12.13 0,-4.61 1.7,-8.73 5.1,-12.13 3.39,-3.39 7.52,-5.09 12.13,-5.09l9.7 0c4.12,0 7.52,-1.21 10.67,-3.88 2.91,-2.67 4.37,-6.8 4.37,-12.62 0,-4.61 -1.46,-8.49 -4.61,-11.64 -3.15,-3.15 -7.28,-4.61 -12.86,-4.61 -4.12,0 -8,0.49 -11.16,1.46 -3.39,1.21 -6.54,2.42 -9.21,3.63 -2.67,1.22 -5.34,2.43 -7.77,3.4 -2.42,1.21 -4.85,1.7 -7.27,1.7 -5.1,0 -8.98,-1.94 -11.89,-5.58 -2.91,-3.64 -4.37,-7.76 -4.37,-12.37zm283.84 133.9c0,6.06 -1.7,10.92 -5.1,14.07 -3.64,3.15 -8,4.85 -13.1,4.85 -5.09,0 -9.46,-1.7 -12.85,-4.85 -3.64,-3.15 -5.34,-8.01 -5.34,-14.07l0 -91.94 -0.48 0 -78.6 102.86c-2.18,2.66 -4.61,4.85 -7.52,6.06 -2.91,1.21 -5.58,1.94 -7.76,1.94 -5.09,0 -9.46,-1.7 -12.86,-4.85 -3.64,-3.15 -5.33,-8.01 -5.33,-14.07l0 -140.69c0,-6.07 1.69,-10.92 5.33,-14.07 3.4,-3.16 7.77,-4.86 12.86,-4.86 5.09,0 9.46,1.7 13.1,4.86 3.39,3.15 5.09,8 5.09,14.07l0 93.15 0.49 0 78.59 -104.07c2.19,-2.67 4.61,-4.85 7.52,-6.06 2.91,-1.22 5.58,-1.95 7.76,-1.95 5.1,0 9.46,1.7 13.1,4.86 3.4,3.15 5.1,8 5.1,14.07l0 140.69zm170.77 0c0,6.06 -1.7,10.92 -5.1,14.07 -3.64,3.15 -8,4.85 -13.1,4.85 -5.09,0 -9.46,-1.7 -12.85,-4.85 -3.64,-3.15 -5.34,-8.01 -5.34,-14.07l0 -54.34 -76.17 0 0 54.34c0,6.06 -1.7,10.92 -5.09,14.07 -3.64,3.15 -8.01,4.85 -13.1,4.85 -5.09,0 -9.46,-1.7 -12.86,-4.85 -3.64,-3.15 -5.33,-8.01 -5.33,-14.07l0 -140.69c0,-6.07 1.69,-10.92 5.33,-14.07 3.4,-3.16 7.77,-4.86 12.86,-4.86 5.09,0 9.46,1.7 13.1,4.86 3.39,3.15 5.09,8 5.09,14.07l0 52.88 76.17 0 0 -52.88c0,-6.07 1.7,-10.92 5.34,-14.07 3.39,-3.16 7.76,-4.86 12.85,-4.86 5.1,0 9.46,1.7 13.1,4.86 3.4,3.15 5.1,8 5.1,14.07l0 140.69z"/>
   <path class="fil3" d="M334.81 2298.58c0,6.06 -1.71,10.91 -5.14,14.07 -3.65,3.15 -8.05,4.85 -13.19,4.85 -5.13,0 -9.53,-1.7 -12.94,-4.85 -3.67,-3.16 -5.38,-8.01 -5.38,-14.07l0 -20.38 -103.59 0 0 20.38c0,6.06 -1.71,10.91 -5.13,14.07 -3.66,3.15 -8.07,4.85 -13.19,4.85 -5.14,0 -9.53,-1.7 -12.96,-4.85 -3.66,-3.16 -5.37,-8.01 -5.37,-14.07l0 -33.48c0,-6.06 1.71,-10.92 5.37,-14.07 3.67,-3.15 7.82,-4.85 12.96,-4.85 1.7,0 3.65,-2.91 5.86,-8.73 1.95,-5.58 3.91,-12.86 5.62,-21.35 1.71,-8.49 2.93,-17.46 4.15,-27.17 1.22,-9.46 1.71,-18.19 1.71,-26.2l0 -38.32c0,-6.07 1.71,-10.92 5.38,-14.07 3.41,-3.16 7.82,-4.85 12.94,-4.85l82.58 0c5.14,0 9.53,1.69 13.2,4.85 3.42,3.15 5.13,8 5.13,14.07l0 121.77 3.66 0c5.14,0 9.54,1.7 13.19,4.85 3.43,3.15 5.14,8.01 5.14,14.07l0 33.48zm-58.64 -161.07l-45.93 0 0 22.8c0,7.28 -0.25,15.04 -0.97,23.04 -0.74,8.25 -1.97,16.26 -3.19,24.26 -1.22,8.01 -2.69,15.28 -4.39,21.83 -1.71,6.79 -3.66,12.37 -5.62,16.74l60.1 0 0 -108.67zm220.87 124.68c0,6.06 -1.71,10.92 -5.14,14.07 -3.66,3.15 -8.05,4.85 -13.19,4.85 -5.13,0 -9.53,-1.7 -12.94,-4.85 -3.67,-3.15 -5.38,-8.01 -5.38,-14.07l0 -124.68 -48.38 0 0 55.79c0,6.79 -0.48,13.83 -1.46,20.86 -0.97,7.03 -2.45,14.07 -4.64,20.62 -2.21,6.79 -5.14,13.1 -8.55,18.92 -3.67,5.82 -7.83,10.92 -12.71,15.04 -4.15,3.64 -8.55,6.55 -13.2,8.73 -4.64,2.43 -10.01,3.64 -15.87,3.64 -5.87,0 -10.02,-1.7 -12.71,-5.34 -2.69,-3.39 -3.91,-7.27 -3.91,-11.4 0,-4.12 1.22,-7.52 3.42,-9.94 2.2,-2.43 5.63,-4.85 10.27,-7.04 2.68,-1.21 5.61,-3.15 8.3,-5.58 2.69,-2.42 5.13,-5.58 7.33,-9.46 2.2,-3.88 3.91,-8.49 5.13,-13.82 1.23,-5.1 1.95,-11.16 1.95,-17.95l0 -76.17c0,-6.07 1.71,-10.92 5.38,-14.07 3.42,-3.16 7.81,-4.85 12.95,-4.85l85.02 0c5.14,0 9.53,1.69 13.19,4.85 3.43,3.15 5.14,8 5.14,14.07l0 137.78zm140.24 0c0,6.06 -1.7,10.92 -5.12,14.07 -3.67,3.15 -8.06,4.85 -13.2,4.85 -5.12,0 -9.53,-1.7 -12.94,-4.85 -3.67,-3.15 -5.38,-8.01 -5.38,-14.07l0 -54.09 -0.49 0 -55.46 66.7c-1.95,2.19 -4.16,3.89 -6.84,4.86 -2.69,0.97 -5.13,1.45 -7.33,1.45 -2.69,0 -5.13,-0.48 -7.33,-1.45 -2.2,-1.22 -4.15,-2.67 -5.86,-4.37 -1.72,-1.7 -2.94,-3.88 -3.67,-6.07 -0.98,-2.18 -1.46,-4.36 -1.46,-6.79 0,-3.64 1.7,-7.03 4.88,-10.67l42.76 -45.61c-6.11,-0.97 -11.98,-2.66 -17.6,-5.09 -5.62,-2.42 -10.26,-5.58 -14.41,-9.46 -4.15,-3.64 -7.33,-8.25 -9.53,-13.58 -2.45,-5.1 -3.66,-11.16 -3.66,-17.71 0,-9.46 1.47,-17.71 4.16,-24.74 2.68,-6.8 6.83,-12.38 12.2,-16.99 5.14,-4.6 11.5,-7.76 19.07,-9.94 7.57,-2.18 15.87,-3.15 25.4,-3.15l43.01 0c6.1,0 10.99,1.69 14.17,5.09 3.17,3.4 4.63,8 4.63,13.83l0 137.78zm-36.64 -123.23l-25.17 0c-6.84,0 -12.22,1.7 -16.37,5.34 -4.15,3.64 -6.35,8.97 -6.35,16.01 0,6.79 2.2,12.13 6.35,15.77 4.15,3.88 9.53,5.82 16.37,5.82l25.17 0 0 -42.94zm349.13 125.41c0,5.58 -1.96,9.95 -5.62,12.62 -3.91,2.67 -8.31,4.12 -13.44,4.12 -3.67,0 -6.6,-0.97 -9.29,-2.91 -2.69,-1.94 -5.86,-4.85 -9.28,-8.49l-63.27 -69.38 0 63.32c0,4.6 -1.72,8.73 -4.9,12.12 -3.41,3.64 -7.82,5.34 -13.44,5.34 -5.12,0 -9.52,-1.45 -12.94,-4.85 -3.66,-3.15 -5.38,-7.28 -5.38,-12.61l0 -63.32 -63.28 69.38c-3.41,3.64 -6.35,6.55 -9.03,8.49 -2.69,1.94 -5.88,2.91 -9.53,2.91 -5.14,0 -9.53,-1.45 -13.2,-4.12 -3.9,-2.67 -5.86,-7.04 -5.86,-12.62 0,-3.64 0.98,-7.03 3.17,-9.94 1.96,-2.67 4.41,-5.58 7.09,-8.49l56.44 -59.92 -46.18 -46.57c-4.15,-4.13 -7.08,-7.52 -9.04,-10.43 -1.95,-2.67 -2.93,-5.83 -2.93,-8.98 0,-5.09 1.96,-9.46 5.61,-12.61 3.67,-3.16 7.83,-4.86 12.47,-4.86 3.42,0 6.35,0.73 8.8,2.19 2.19,1.7 4.15,3.15 5.37,4.61l60.1 65.01 0 -53.85c0,-5.1 1.72,-9.22 5.13,-12.86 3.18,-3.4 7.57,-5.1 13.19,-5.1 5.14,0 9.53,1.46 13.2,4.61 3.42,3.16 5.14,7.77 5.14,13.35l0 53.85 60.1 -65.01c1.21,-1.46 3.17,-2.91 5.62,-4.61 2.19,-1.46 5.12,-2.19 8.55,-2.19 4.64,0 9.03,1.7 12.7,4.86 3.66,3.15 5.38,7.52 5.38,12.61 0,3.15 -0.98,6.31 -2.94,8.98 -1.95,2.91 -4.88,6.3 -9.04,10.43l-46.17 46.57 56.43 59.92c2.69,2.91 5.14,5.82 7.34,8.49 1.95,2.91 2.93,6.3 2.93,9.94zm161.49 -2.18c0,6.06 -1.71,10.92 -5.14,14.07 -3.66,3.15 -8.05,4.85 -13.19,4.85 -5.13,0 -9.53,-1.7 -12.94,-4.85 -3.67,-3.15 -5.38,-8.01 -5.38,-14.07l0 -91.94 -0.48 0 -79.17 102.86c-2.2,2.66 -4.64,4.85 -7.57,6.06 -2.94,1.21 -5.62,1.94 -7.82,1.94 -5.13,0 -9.53,-1.7 -12.95,-4.85 -3.67,-3.15 -5.37,-8.01 -5.37,-14.07l0 -140.69c0,-6.07 1.7,-10.92 5.37,-14.07 3.42,-3.16 7.82,-4.86 12.95,-4.86 5.13,0 9.53,1.7 13.19,4.86 3.42,3.15 5.13,8 5.13,14.07l0 93.15 0.49 0 79.16 -104.07c2.21,-2.67 4.64,-4.85 7.57,-6.06 2.94,-1.22 5.62,-1.95 7.82,-1.95 5.14,0 9.53,1.7 13.19,4.86 3.43,3.15 5.14,8 5.14,14.07l0 140.69zm131.2 -139.97c0,4.13 -1.23,8.01 -3.91,11.4 -2.69,3.64 -6.85,5.34 -12.71,5.34l-26.63 0 0 123.23c0,6.06 -1.71,10.92 -5.13,14.07 -3.66,3.15 -8.06,4.85 -13.19,4.85 -5.14,0 -9.53,-1.7 -12.95,-4.85 -3.67,-3.15 -5.37,-8.01 -5.37,-14.07l0 -123.23 -26.64 0c-5.86,0 -10.01,-1.7 -12.7,-5.34 -2.69,-3.39 -3.91,-7.27 -3.91,-11.4 0,-4.12 1.46,-8 4.4,-11.64 2.93,-3.4 7.08,-5.09 12.21,-5.09l89.91 0c5.14,0 9.29,1.69 12.22,5.09 2.93,3.64 4.4,7.52 4.4,11.64zm108 139.24c0,4.13 -1.46,8.01 -4.39,11.4 -2.94,3.64 -7.33,5.34 -12.95,5.34l-63.04 0c-5.37,0 -9.77,-1.7 -13.44,-5.09 -3.67,-3.16 -5.37,-7.52 -5.37,-13.1l0 -133.42c0,-6.06 1.46,-11.16 4.64,-15.28 3.18,-3.88 7.82,-5.82 14.42,-5.82l60.59 0c5.86,0 10.25,1.69 13.19,5.09 2.68,3.64 4.16,7.52 4.16,11.64 0,4.13 -1.48,8.01 -4.41,11.4 -2.93,3.64 -7.33,5.34 -12.94,5.34l-43.01 0 0 35.42 40.07 0c6.11,0 10.52,1.7 13.45,5.09 2.93,3.64 4.39,7.52 4.39,11.65 0,4.12 -1.46,8 -4.39,11.4 -3.19,3.63 -7.58,5.33 -13.45,5.33l-40.07 0 0 36.87 45.21 0c5.86,0 10.26,1.7 13.19,5.1 2.69,3.64 4.15,7.52 4.15,11.64zm163.94 0.73c0,6.06 -1.71,10.92 -5.13,14.07 -3.67,3.15 -8.06,4.85 -13.2,4.85 -5.12,0 -9.53,-1.7 -12.94,-4.85 -3.67,-3.15 -5.38,-8.01 -5.38,-14.07l0 -124.68 -48.37 0 0 55.79c0,6.79 -0.49,13.83 -1.47,20.86 -0.97,7.03 -2.44,14.07 -4.64,20.62 -2.2,6.79 -5.14,13.1 -8.55,18.92 -3.67,5.82 -7.83,10.92 -12.71,15.04 -4.15,3.64 -8.55,6.55 -13.19,8.73 -4.65,2.43 -10.02,3.64 -15.88,3.64 -5.87,0 -10.02,-1.7 -12.71,-5.34 -2.69,-3.39 -3.91,-7.27 -3.91,-11.4 0,-4.12 1.22,-7.52 3.43,-9.94 2.19,-2.43 5.62,-4.85 10.26,-7.04 2.68,-1.21 5.61,-3.15 8.3,-5.58 2.69,-2.42 5.14,-5.58 7.33,-9.46 2.2,-3.88 3.91,-8.49 5.13,-13.82 1.23,-5.1 1.95,-11.16 1.95,-17.95l0 -76.17c0,-6.07 1.72,-10.92 5.38,-14.07 3.43,-3.16 7.82,-4.85 12.95,-4.85l85.02 0c5.14,0 9.53,1.69 13.2,4.85 3.42,3.15 5.13,8 5.13,14.07l0 137.78zm121.18 -0.73c0,4.13 -1.46,8.01 -4.39,11.4 -2.94,3.64 -7.33,5.34 -12.95,5.34l-63.05 0c-5.36,0 -9.77,-1.7 -13.43,-5.09 -3.67,-3.16 -5.37,-7.52 -5.37,-13.1l0 -133.42c0,-6.06 1.46,-11.16 4.63,-15.28 3.19,-3.88 7.83,-5.82 14.43,-5.82l60.59 0c5.86,0 10.25,1.69 13.18,5.09 2.69,3.64 4.16,7.52 4.16,11.64 0,4.13 -1.47,8.01 -4.4,11.4 -2.93,3.64 -7.33,5.34 -12.94,5.34l-43.01 0 0 35.42 40.07 0c6.11,0 10.51,1.7 13.44,5.09 2.94,3.64 4.4,7.52 4.4,11.65 0,4.12 -1.46,8 -4.4,11.4 -3.18,3.63 -7.57,5.33 -13.44,5.33l-40.07 0 0 36.87 45.21 0c5.86,0 10.26,1.7 13.19,5.1 2.69,3.64 4.15,7.52 4.15,11.64zm164.69 0.73c0,6.06 -1.72,10.92 -5.14,14.07 -3.67,3.15 -8.06,4.85 -13.19,4.85 -5.13,0 -9.53,-1.7 -12.95,-4.85 -3.66,-3.15 -5.38,-8.01 -5.38,-14.07l0 -91.94 -0.48 0 -79.16 102.86c-2.2,2.66 -4.65,4.85 -7.58,6.06 -2.93,1.21 -5.62,1.94 -7.81,1.94 -5.13,0 -9.53,-1.7 -12.96,-4.85 -3.66,-3.15 -5.37,-8.01 -5.37,-14.07l0 -140.69c0,-6.07 1.71,-10.92 5.37,-14.07 3.43,-3.16 7.83,-4.86 12.96,-4.86 5.12,0 9.52,1.7 13.19,4.86 3.41,3.15 5.13,8 5.13,14.07l0 93.15 0.49 0 79.16 -104.07c2.2,-2.67 4.64,-4.85 7.57,-6.06 2.93,-1.22 5.62,-1.95 7.82,-1.95 5.13,0 9.52,1.7 13.19,4.86 3.42,3.15 5.14,8 5.14,14.07l0 140.69zm-75.01 -167.13c-5.14,0 -10.02,-0.73 -14.91,-1.95 -5.12,-1.21 -9.52,-3.15 -13.43,-5.57 -4.16,-2.19 -7.33,-5.1 -9.78,-8.74 -2.44,-3.39 -3.66,-7.27 -3.66,-11.64 0,-3.15 0.98,-6.07 3.17,-8.49 2.2,-2.18 4.89,-3.4 8.56,-3.4 3.66,0 6.35,0.73 8.05,2.43 1.72,1.7 3.19,3.64 4.65,5.82 1.47,2.18 3.42,3.88 5.87,5.58 2.19,1.7 6.1,2.67 11.48,2.67 5.37,0 9.28,-0.97 11.72,-2.67 2.2,-1.7 4.15,-3.4 5.62,-5.58 1.47,-2.18 2.94,-4.12 4.65,-5.82 1.71,-1.7 4.39,-2.43 8.06,-2.43 3.66,0 6.35,1.22 8.55,3.4 2.2,2.42 3.18,5.34 3.18,8.49 0,4.37 -1.23,8.25 -3.67,11.64 -2.44,3.64 -5.62,6.55 -9.53,8.74 -4.16,2.42 -8.55,4.36 -13.43,5.57 -5.14,1.22 -10.02,1.95 -15.15,1.95zm330.33 203.52c0,6.06 -1.71,10.91 -5.13,14.07 -3.66,3.15 -8.06,4.85 -13.2,4.85 -5.13,0 -9.53,-1.7 -12.94,-4.85 -3.67,-3.16 -5.38,-8.01 -5.38,-14.07l0 -20.38 -103.59 0 0 20.38c0,6.06 -1.71,10.91 -5.13,14.07 -3.66,3.15 -8.07,4.85 -13.19,4.85 -5.14,0 -9.53,-1.7 -12.95,-4.85 -3.67,-3.16 -5.38,-8.01 -5.38,-14.07l0 -33.48c0,-6.06 1.71,-10.92 5.38,-14.07 3.66,-3.15 7.81,-4.85 12.95,-4.85 1.7,0 3.65,-2.91 5.86,-8.73 1.95,-5.58 3.91,-12.86 5.62,-21.35 1.71,-8.49 2.93,-17.46 4.15,-27.17 1.22,-9.46 1.71,-18.19 1.71,-26.2l0 -38.32c0,-6.07 1.71,-10.92 5.38,-14.07 3.42,-3.16 7.82,-4.85 12.94,-4.85l82.58 0c5.14,0 9.53,1.69 13.2,4.85 3.42,3.15 5.13,8 5.13,14.07l0 121.77 3.66 0c5.14,0 9.54,1.7 13.2,4.85 3.42,3.15 5.13,8.01 5.13,14.07l0 33.48zm-58.64 -161.07l-45.93 0 0 22.8c0,7.28 -0.25,15.04 -0.97,23.04 -0.74,8.25 -1.97,16.26 -3.19,24.26 -1.21,8.01 -2.68,15.28 -4.39,21.83 -1.71,6.79 -3.66,12.37 -5.62,16.74l60.1 0 0 -108.67zm232.11 54.33c0,12.62 -1.95,24.26 -6.11,35.18 -4.15,10.91 -9.77,20.13 -17.1,28.14 -7.34,8 -16.13,14.31 -26.39,18.92 -10.51,4.85 -21.99,7.03 -34.45,7.03 -12.46,0 -23.94,-2.18 -34.2,-7.03 -10.27,-4.61 -19.06,-10.92 -26.39,-18.92 -7.58,-8.01 -13.2,-17.23 -17.35,-28.14 -4.16,-10.92 -6.11,-22.56 -6.11,-35.18 0,-12.61 1.95,-24.5 6.11,-35.41 4.15,-10.92 9.77,-20.38 17.35,-28.38 7.33,-8.01 16.12,-14.07 26.39,-18.68 10.26,-4.61 21.74,-6.8 34.2,-6.8 12.22,0 23.46,2.43 33.96,7.04 10.27,4.61 19.06,11.16 26.63,19.16 7.34,8.01 13.2,17.47 17.35,28.38 4.16,10.92 6.11,22.32 6.11,34.69zm-38.12 0c0,-7.27 -0.98,-14.31 -2.93,-21.1 -1.96,-6.79 -4.89,-12.86 -8.55,-17.95 -3.91,-5.1 -8.8,-8.98 -14.42,-12.13 -5.86,-3.15 -12.45,-4.61 -20.03,-4.61 -7.57,0 -14.41,1.46 -20.03,4.61 -5.62,3.15 -10.51,7.03 -14.17,12.13 -3.91,5.09 -6.84,11.16 -8.8,17.95 -1.95,6.79 -2.93,13.83 -2.93,21.1 0,7.52 0.98,14.56 2.93,21.11 1.71,6.79 4.65,12.61 8.55,17.71 3.67,5.09 8.56,9.21 14.18,12.37 5.62,3.15 12.46,4.61 20.27,4.61 7.82,0 14.66,-1.46 20.28,-4.61 5.62,-3.16 10.5,-7.28 14.42,-12.37 3.66,-5.1 6.6,-10.92 8.55,-17.71 1.7,-6.55 2.68,-13.59 2.68,-21.11zm203.28 70.35c0,6.06 -1.71,10.92 -5.13,14.07 -3.67,3.15 -8.06,4.85 -13.2,4.85 -5.13,0 -9.53,-1.7 -12.94,-4.85 -3.67,-3.15 -5.38,-8.01 -5.38,-14.07l0 -54.34 -76.72 0 0 54.34c0,6.06 -1.71,10.92 -5.12,14.07 -3.67,3.15 -8.07,4.85 -13.2,4.85 -5.13,0 -9.53,-1.7 -12.95,-4.85 -3.67,-3.15 -5.37,-8.01 -5.37,-14.07l0 -140.69c0,-6.07 1.7,-10.92 5.37,-14.07 3.42,-3.16 7.82,-4.86 12.95,-4.86 5.13,0 9.53,1.7 13.2,4.86 3.41,3.15 5.12,8 5.12,14.07l0 52.88 76.72 0 0 -52.88c0,-6.07 1.71,-10.92 5.38,-14.07 3.41,-3.16 7.81,-4.86 12.94,-4.86 5.14,0 9.53,1.7 13.2,4.86 3.42,3.15 5.13,8 5.13,14.07l0 140.69zm149.29 -36.63c0,8.49 -1.47,16.01 -4.15,22.56 -2.69,6.55 -6.6,12.13 -11.48,16.5 -5.14,4.6 -11,8 -17.84,10.18 -7.09,2.19 -14.66,3.4 -23.22,3.4l-50.33 0c-5.62,0 -10.26,-1.7 -13.91,-5.09 -3.67,-3.16 -5.63,-7.77 -5.63,-13.35l0 -136.08c0,-5.82 1.71,-10.43 5.37,-13.59 3.67,-3.15 8.31,-4.6 13.93,-4.6l72.81 0c5.87,0 10.27,1.69 13.2,5.09 2.68,3.64 4.15,7.52 4.15,11.64 0,4.13 -1.47,8.01 -4.4,11.4 -2.94,3.64 -7.33,5.34 -12.95,5.34l-55.46 0 0 34.93 28.83 0c8.8,0 16.85,0.97 24.43,2.91 7.57,1.94 13.93,5.1 19.55,9.22 5.38,4.12 9.53,9.46 12.7,16.01 2.93,6.55 4.4,14.56 4.4,23.53zm-38.11 -0.48c0,-5.58 -2.2,-10.19 -6.36,-13.83 -4.15,-3.64 -10.75,-5.34 -19.54,-5.34l-25.9 0 0 40.27 28.83 0c6.84,0 12.46,-1.94 16.61,-5.58 4.16,-3.64 6.36,-8.73 6.36,-15.52zm194.72 40.02c0,4.61 -1.71,8.49 -4.89,11.4 -3.41,3.16 -7.33,4.61 -11.96,4.61 -5.14,0 -9.05,-1.21 -11.74,-3.64 -2.68,-2.18 -4.88,-5.33 -6.1,-8.97l-7.82 -24.26 -67.92 0 -7.82 24.01c-1.22,3.64 -3.18,6.8 -5.87,9.22 -2.68,2.43 -6.6,3.64 -11.72,3.64 -4.89,0 -9.04,-1.7 -12.7,-4.85 -3.67,-3.15 -5.38,-7.28 -5.38,-12.13 0,-1.94 0.24,-3.64 0.73,-5.09 0.25,-1.22 0.74,-2.19 0.98,-2.91l49.6 -133.42c2.19,-5.58 5.37,-10.43 10.02,-14.31 4.64,-3.88 10.01,-5.83 16.12,-5.83 6.6,0 11.97,1.95 16.37,5.58 4.4,3.89 7.57,8.74 9.77,14.56l48.38 133.42c0.73,1.94 1.47,3.63 1.71,5.33 0.24,1.7 0.24,2.91 0.24,3.64zm-76.23 -124.68l-0.49 0 -23.21 70.34 46.43 0 -22.73 -70.34zm219.4 112.07c0,5.82 -1.95,10.67 -5.86,14.31 -4.16,3.64 -9.04,6.55 -14.66,8.73 -5.87,2.18 -11.97,3.64 -18.08,4.37 -6.35,0.73 -11.73,1.21 -16.37,1.21 -12.46,0 -23.94,-2.18 -34.2,-7.03 -10.27,-4.61 -19.06,-10.92 -26.39,-18.92 -7.58,-8.01 -13.2,-17.23 -17.35,-28.14 -4.16,-10.92 -6.11,-22.56 -6.11,-35.18 0,-12.61 1.95,-24.5 6.11,-35.41 4.15,-10.92 9.77,-20.38 17.35,-28.38 7.33,-8.01 16.12,-14.07 26.39,-18.68 10.26,-4.61 21.74,-6.8 34.2,-6.8 4.4,0 9.53,0.49 15.63,1.22 6.12,0.73 11.74,2.18 17.36,4.36 5.36,2.19 10.01,4.86 13.91,8.25 3.67,3.64 5.63,8.01 5.63,13.34 0,4.37 -1.47,8.25 -4.15,11.4 -2.69,3.16 -6.36,4.86 -11,4.86 -2.44,0 -4.89,-0.49 -7.08,-1.46 -2.2,-0.73 -4.89,-1.7 -7.58,-2.91 -2.69,-0.97 -5.86,-1.94 -9.53,-2.91 -3.66,-0.73 -8.06,-1.21 -13.19,-1.21 -7.57,0 -14.41,1.45 -20.03,4.36 -5.62,3.16 -10.51,7.04 -14.17,12.13 -3.91,5.1 -6.84,10.92 -8.8,17.47 -1.95,6.55 -2.93,13.58 -2.93,21.1 0,7.28 0.98,14.07 2.93,20.62 1.96,6.55 4.89,12.13 8.8,16.98 3.9,4.85 8.79,8.73 14.41,11.64 5.62,2.91 12.22,4.37 19.79,4.37 5.13,0 9.77,-0.49 13.44,-1.7 3.66,-0.97 7.09,-2.18 10.02,-3.39 2.93,-1.22 5.62,-2.43 8.05,-3.64 2.45,-0.97 4.89,-1.46 7.34,-1.46 2.69,0 5.12,0.49 7.33,1.7 1.95,1.21 3.67,2.67 4.88,4.37 1.22,1.69 2.2,3.63 2.94,5.33 0.73,1.94 0.97,3.64 0.97,5.1zm149.28 0c0,5.82 -1.95,10.67 -5.86,14.31 -4.16,3.64 -9.05,6.55 -14.67,8.73 -5.86,2.18 -11.96,3.64 -18.08,4.37 -6.34,0.73 -11.72,1.21 -16.36,1.21 -12.46,0 -23.94,-2.18 -34.21,-7.03 -10.26,-4.61 -19.05,-10.92 -26.39,-18.92 -7.57,-8.01 -13.19,-17.23 -17.34,-28.14 -4.16,-10.92 -6.11,-22.56 -6.11,-35.18 0,-12.61 1.95,-24.5 6.11,-35.41 4.15,-10.92 9.77,-20.38 17.34,-28.38 7.34,-8.01 16.13,-14.07 26.39,-18.68 10.27,-4.61 21.75,-6.8 34.21,-6.8 4.4,0 9.52,0.49 15.63,1.22 6.11,0.73 11.73,2.18 17.35,4.36 5.37,2.19 10.01,4.86 13.92,8.25 3.67,3.64 5.62,8.01 5.62,13.34 0,4.37 -1.46,8.25 -4.15,11.4 -2.69,3.16 -6.35,4.86 -11,4.86 -2.43,0 -4.88,-0.49 -7.08,-1.46 -2.19,-0.73 -4.88,-1.7 -7.57,-2.91 -2.69,-0.97 -5.86,-1.94 -9.53,-2.91 -3.67,-0.73 -8.07,-1.21 -13.19,-1.21 -7.58,0 -14.42,1.45 -20.04,4.36 -5.62,3.16 -10.5,7.04 -14.17,12.13 -3.91,5.1 -6.84,10.92 -8.79,17.47 -1.95,6.55 -2.93,13.58 -2.93,21.1 0,7.28 0.98,14.07 2.93,20.62 1.95,6.55 4.88,12.13 8.79,16.98 3.91,4.85 8.8,8.73 14.42,11.64 5.62,2.91 12.21,4.37 19.79,4.37 5.12,0 9.77,-0.49 13.43,-1.7 3.67,-0.97 7.09,-2.18 10.02,-3.39 2.94,-1.22 5.62,-2.43 8.06,-3.64 2.45,-0.97 4.89,-1.46 7.33,-1.46 2.69,0 5.13,0.49 7.34,1.7 1.95,1.21 3.66,2.67 4.88,4.37 1.22,1.69 2.2,3.63 2.93,5.33 0.74,1.94 0.98,3.64 0.98,5.1zm160.78 12.61c0,4.61 -1.71,8.49 -4.89,11.4 -3.41,3.16 -7.33,4.61 -11.96,4.61 -5.14,0 -9.05,-1.21 -11.74,-3.64 -2.68,-2.18 -4.88,-5.33 -6.1,-8.97l-7.82 -24.26 -67.92 0 -7.82 24.01c-1.22,3.64 -3.18,6.8 -5.87,9.22 -2.68,2.43 -6.6,3.64 -11.72,3.64 -4.89,0 -9.04,-1.7 -12.7,-4.85 -3.67,-3.15 -5.38,-7.28 -5.38,-12.13 0,-1.94 0.24,-3.64 0.73,-5.09 0.25,-1.22 0.74,-2.19 0.98,-2.91l49.6 -133.42c2.19,-5.58 5.37,-10.43 10.02,-14.31 4.64,-3.88 10.01,-5.83 16.12,-5.83 6.6,0 11.97,1.95 16.37,5.58 4.4,3.89 7.57,8.74 9.77,14.56l48.38 133.42c0.73,1.94 1.47,3.63 1.71,5.33 0.24,1.7 0.24,2.91 0.24,3.64zm-76.23 -124.68l-0.49 0 -23.21 70.34 46.43 0 -22.73 -70.34z"/>
   <path class="fil5" d="M1044.11 3227.69c65.76,0 119.07,53.29 119.07,119.05 0,65.78 -53.31,119.06 -119.07,119.06 -65.76,0 -119.05,-53.28 -119.05,-119.06 0,-65.76 53.29,-119.05 119.05,-119.05z"/>
  </g>
 </g>
</svg>
