<?xml version="1.0"?>
<svg xmlns="http://www.w3.org/2000/svg" xmlns:xlink="http://www.w3.org/1999/xlink" xmlns:svgjs="http://svgjs.com/svgjs" version="1.1" width="512" height="512" x="0" y="0" viewBox="0 0 44.648 44.648" style="enable-background:new 0 0 512 512" xml:space="preserve" class=""><g>
<g xmlns="http://www.w3.org/2000/svg">
	<g>
		<path d="M36.057,0H8.806C6.629,0,4.514,2.21,4.514,4.388v33.34c0.001,2.177,1.761,4.596,3.937,4.596h1.847v0.846    c0,0.83,0.68,1.479,1.509,1.479h1.803c0.83,0,1.499-0.648,1.499-1.479v-0.846h14.432v0.846c0,0.83,0.668,1.479,1.498,1.479h1.804    c0.83,0,1.509-0.648,1.509-1.479v-0.846h1.732c2.177,0,4.051-2.418,4.051-4.596V4.406C40.135,2.228,38.234,0,36.057,0z     M8.474,5.913V4.536c0-0.682,0.529-1.212,1.21-1.212h4.262c0.682,0,1.23,0.53,1.23,1.212v1.377c0,0.681-0.548,1.249-1.23,1.249    H9.684C9.003,7.162,8.474,6.595,8.474,5.913z M22.248,34.846c-7.1,0-12.855-5.754-12.855-12.854    c0-7.099,5.755-12.854,12.855-12.854c7.099,0,12.854,5.755,12.854,12.854C35.102,29.092,29.347,34.846,22.248,34.846z" fill="#54bdd2" data-original="#000000" style="" class=""/>
		<path d="M22.248,12.187c-5.416,0-9.806,4.39-9.806,9.805c0,5.416,4.39,9.807,9.806,9.807c5.417,0,9.806-4.391,9.806-9.807    S27.664,12.187,22.248,12.187z M22.248,27.889c-3.252,0-5.897-2.646-5.897-5.896s2.645-5.896,5.897-5.896    c3.25,0,5.896,2.645,5.896,5.896C28.145,25.243,25.5,27.889,22.248,27.889z" fill="#54bdd2" data-original="#000000" style="" class=""/>
		<path d="M19.786,20.072c-0.756,0.644-1.237,1.6-1.237,2.671c0,1.938,1.57,3.507,3.508,3.507c1.518,0,2.807-0.965,3.294-2.312    C23.076,23.363,21.104,21.957,19.786,20.072z" fill="#54bdd2" data-original="#000000" style="" class=""/>
	</g>
</g>
<g xmlns="http://www.w3.org/2000/svg">
</g>
<g xmlns="http://www.w3.org/2000/svg">
</g>
<g xmlns="http://www.w3.org/2000/svg">
</g>
<g xmlns="http://www.w3.org/2000/svg">
</g>
<g xmlns="http://www.w3.org/2000/svg">
</g>
<g xmlns="http://www.w3.org/2000/svg">
</g>
<g xmlns="http://www.w3.org/2000/svg">
</g>
<g xmlns="http://www.w3.org/2000/svg">
</g>
<g xmlns="http://www.w3.org/2000/svg">
</g>
<g xmlns="http://www.w3.org/2000/svg">
</g>
<g xmlns="http://www.w3.org/2000/svg">
</g>
<g xmlns="http://www.w3.org/2000/svg">
</g>
<g xmlns="http://www.w3.org/2000/svg">
</g>
<g xmlns="http://www.w3.org/2000/svg">
</g>
<g xmlns="http://www.w3.org/2000/svg">
</g>
</g></svg>
