<?xml version="1.0"?>
<svg xmlns="http://www.w3.org/2000/svg" xmlns:xlink="http://www.w3.org/1999/xlink" xmlns:svgjs="http://svgjs.com/svgjs" version="1.1" width="512" height="512" x="0" y="0" viewBox="0 0 512 512" style="enable-background:new 0 0 512 512" xml:space="preserve" class=""><g><path xmlns="http://www.w3.org/2000/svg" d="m256 98c-87.121094 0-158 70.878906-158 158s70.878906 158 158 158 158-70.878906 158-158-70.878906-158-158-158zm15 173h-102v-30h72v-116.667969h30zm0 0" fill="#eae9e9" data-original="#000000" style="" class=""/><path xmlns="http://www.w3.org/2000/svg" d="m437.019531 74.980469c-48.351562-48.351563-112.640625-74.980469-181.019531-74.980469s-132.667969 26.628906-181.019531 74.980469c-48.351563 48.351562-74.980469 112.640625-74.980469 181.019531s26.628906 132.667969 74.980469 181.019531c48.351562 48.351563 112.640625 74.980469 181.019531 74.980469s132.667969-26.628906 181.019531-74.980469c48.351563-48.351562 74.980469-112.640625 74.980469-181.019531s-26.628906-132.667969-74.980469-181.019531zm-181.019531 369.019531c-103.664062 0-188-84.335938-188-188s84.335938-188 188-188 188 84.335938 188 188-84.335938 188-188 188zm0 0" fill="#eae9e9" data-original="#000000" style="" class=""/></g></svg>
