<?xml version="1.0"?>
<svg xmlns="http://www.w3.org/2000/svg" xmlns:xlink="http://www.w3.org/1999/xlink" xmlns:svgjs="http://svgjs.com/svgjs" version="1.1" width="512" height="512" x="0" y="0" viewBox="0 0 478.08 478.08" style="enable-background:new 0 0 512 512" xml:space="preserve" class=""><g>
<g xmlns="http://www.w3.org/2000/svg">
	<g>
		<path d="M460.88,106.006h-91.92c-9.499,0-17.2,7.701-17.2,17.2v18h126.32v-18C478.08,113.707,470.379,106.006,460.88,106.006z" fill="#54bdd2" data-original="#000000" style="" class=""/>
	</g>
</g>
<g xmlns="http://www.w3.org/2000/svg">
	<g>
		<path d="M462.08,195.206H351.76v148.64c0,9.499,7.701,17.2,17.2,17.2c0,0,0,0,0,0h91.92c9.499,0,17.2-7.701,17.2-17.2v-148.64    H462.08z M415.04,263.766c6.186,0,11.2,5.014,11.2,11.2c0,6.186-5.014,11.2-11.2,11.2s-11.2-5.014-11.2-11.2    C403.84,268.781,408.854,263.766,415.04,263.766z M442.8,317.206h-55.6c-4.418,0-8-3.582-8-8s3.582-8,8-8h0.08h55.52    c4.418,0,8,3.582,8,8S447.218,317.206,442.8,317.206z" fill="#54bdd2" data-original="#000000" style="" class=""/>
	</g>
</g>
<g xmlns="http://www.w3.org/2000/svg">
	<g>
		<polygon points="470.08,157.206 462.08,157.206 367.76,157.206 359.76,157.206 351.76,157.206 351.76,179.206 359.76,179.206     367.76,179.206 462.08,179.206 470.08,179.206 478.08,179.206 478.08,157.206   " fill="#54bdd2" data-original="#000000" style="" class=""/>
	</g>
</g>
<g xmlns="http://www.w3.org/2000/svg">
	<g>
		<path d="M319.04,88.646H18.24c-9.663-0.361-17.807,7.14-18.24,16.8v185.92c0.433,9.66,8.577,17.161,18.24,16.8h300.8    c9.663,0.361,17.807-7.14,18.24-16.8v-185.92C336.847,95.787,328.703,88.285,319.04,88.646z" fill="#54bdd2" data-original="#000000" style="" class=""/>
	</g>
</g>
<g xmlns="http://www.w3.org/2000/svg">
	<g>
		<path d="M239.04,373.446h-24.96v-48.88c0-4.418-3.582-8-8-8H130.8c-4.418,0-8,3.582-8,8v48.88H98.24c-4.418,0-8,3.582-8,8    s3.582,8,8,8h140.8c4.418,0,8-3.582,8-8S243.458,373.446,239.04,373.446z" fill="#54bdd2" data-original="#000000" style="" class=""/>
	</g>
</g>
<g xmlns="http://www.w3.org/2000/svg">
</g>
<g xmlns="http://www.w3.org/2000/svg">
</g>
<g xmlns="http://www.w3.org/2000/svg">
</g>
<g xmlns="http://www.w3.org/2000/svg">
</g>
<g xmlns="http://www.w3.org/2000/svg">
</g>
<g xmlns="http://www.w3.org/2000/svg">
</g>
<g xmlns="http://www.w3.org/2000/svg">
</g>
<g xmlns="http://www.w3.org/2000/svg">
</g>
<g xmlns="http://www.w3.org/2000/svg">
</g>
<g xmlns="http://www.w3.org/2000/svg">
</g>
<g xmlns="http://www.w3.org/2000/svg">
</g>
<g xmlns="http://www.w3.org/2000/svg">
</g>
<g xmlns="http://www.w3.org/2000/svg">
</g>
<g xmlns="http://www.w3.org/2000/svg">
</g>
<g xmlns="http://www.w3.org/2000/svg">
</g>
</g></svg>
