<?xml version="1.0"?>
<svg xmlns="http://www.w3.org/2000/svg" xmlns:xlink="http://www.w3.org/1999/xlink" xmlns:svgjs="http://svgjs.com/svgjs" version="1.1" width="512" height="512" x="0" y="0" viewBox="0 0 64 64" style="enable-background:new 0 0 512 512" xml:space="preserve" class=""><g><g xmlns="http://www.w3.org/2000/svg" id="Blender-Kitchen-Mixer-Food-Smoothie"><circle cx="32" cy="47" r="3" fill="#54bdd2" data-original="#000000" style="" class=""/><path d="m37 5a1 1 0 0 0 -1-1h-8a1 1 0 0 0 -1 1v1h10z" fill="#54bdd2" data-original="#000000" style="" class=""/><path d="m45.51 42.27-3.79-2.27h-19.44l-3.79 2.27a1.012 1.012 0 0 0 -.49.86v13.87a1 1 0 0 0 1 1h2v2h4v-2h14v2h4v-2h2a1 1 0 0 0 1-1v-13.87a1.012 1.012 0 0 0 -.49-.86zm-12.51 13.73h-2a1 1 0 0 1 0-2h2a1 1 0 0 1 0 2zm-1-4a5 5 0 1 1 5-5 5.006 5.006 0 0 1 -5 5z" fill="#54bdd2" data-original="#000000" style="" class=""/><path d="m45 8h-26.7a6.975 6.975 0 0 0 -2.22.36l-2.7.9 1.87 1.12a5.063 5.063 0 0 1 2.17 2.71l.32.98a4.984 4.984 0 0 1 .26 1.58v15.71a.939.939 0 0 0 .19.58l4.32 6.06h18.98l4.32-6.06a.939.939 0 0 0 .19-.58v-22.36a1 1 0 0 0 -1-1zm-21 5a1 1 0 0 1 2 0v12a1 1 0 0 1 -2 0zm16 20a1 1 0 0 1 -.725.961l-7 2a.989.989 0 0 1 -.55 0l-7-2a1 1 0 0 1 -.725-.961v-2a1 1 0 0 1 2 0v1.246l6 1.714 6-1.714v-1.246a1 1 0 0 1 2 0z" fill="#54bdd2" data-original="#000000" style="" class=""/><path d="m51 10h-3v2h3a1 1 0 0 1 1 1v14a1 1 0 0 1 -1 1h-3v2h3a3 3 0 0 0 3-3v-14a3 3 0 0 0 -3-3z" fill="#54bdd2" data-original="#000000" style="" class=""/></g></g></svg>
