<?xml version="1.0"?>
<svg xmlns="http://www.w3.org/2000/svg" xmlns:xlink="http://www.w3.org/1999/xlink" xmlns:svgjs="http://svgjs.com/svgjs" version="1.1" width="512" height="512" x="0" y="0" viewBox="0 0 512.008 512.008" style="enable-background:new 0 0 512 512" xml:space="preserve" class=""><g>
<g xmlns="http://www.w3.org/2000/svg">
	<g>
		<circle cx="208" cy="448.004" r="48" fill="#ffffff" data-original="#000000" style="" class=""/>
	</g>
</g>
<g xmlns="http://www.w3.org/2000/svg">
	<g>
		<circle cx="400" cy="448.004" r="48" fill="#ffffff" data-original="#000000" style="" class=""/>
	</g>
</g>
<g xmlns="http://www.w3.org/2000/svg">
	<g>
		<path d="M508.288,85.764c-3.04-3.648-7.552-5.76-12.288-5.76H119.936l-13.92-52.128c-1.856-7.008-8.192-11.872-15.456-11.872H16    c-8.832,0-16,7.168-16,16c0,8.832,7.168,16,16,16h62.272l82.272,308.128c1.856,7.008,8.192,11.872,15.456,11.872h256    c8.832,0,16-7.168,16-16c0-8.832-7.168-16-16-16H188.288l-8.992-33.664L464.8,287.972c7.392-0.384,13.6-5.792,14.944-13.088    l32-176C512.608,94.18,511.328,89.38,508.288,85.764z M368,208.004h-32v32c0,8.832-7.168,16-16,16c-8.832,0-16-7.168-16-16v-32    h-32c-8.832,0-16-7.168-16-16c0-8.832,7.168-16,16-16h32v-32c0-8.832,7.168-16,16-16c8.832,0,16,7.168,16,16v32h32    c8.832,0,16,7.168,16,16C384,200.836,376.832,208.004,368,208.004z" fill="#ffffff" data-original="#000000" style="" class=""/>
	</g>
</g>
<g xmlns="http://www.w3.org/2000/svg">
</g>
<g xmlns="http://www.w3.org/2000/svg">
</g>
<g xmlns="http://www.w3.org/2000/svg">
</g>
<g xmlns="http://www.w3.org/2000/svg">
</g>
<g xmlns="http://www.w3.org/2000/svg">
</g>
<g xmlns="http://www.w3.org/2000/svg">
</g>
<g xmlns="http://www.w3.org/2000/svg">
</g>
<g xmlns="http://www.w3.org/2000/svg">
</g>
<g xmlns="http://www.w3.org/2000/svg">
</g>
<g xmlns="http://www.w3.org/2000/svg">
</g>
<g xmlns="http://www.w3.org/2000/svg">
</g>
<g xmlns="http://www.w3.org/2000/svg">
</g>
<g xmlns="http://www.w3.org/2000/svg">
</g>
<g xmlns="http://www.w3.org/2000/svg">
</g>
<g xmlns="http://www.w3.org/2000/svg">
</g>
</g></svg>
