<?xml version="1.0"?>
<svg xmlns="http://www.w3.org/2000/svg" xmlns:xlink="http://www.w3.org/1999/xlink" xmlns:svgjs="http://svgjs.com/svgjs" version="1.1" width="512" height="512" x="0" y="0" viewBox="0 0 512.007 512.007" style="enable-background:new 0 0 512 512" xml:space="preserve" class=""><g><g xmlns="http://www.w3.org/2000/svg"><path d="m127.033 206.594 113.8-83.038v-123.313c-99.39 5.812-183.499 68.293-220.562 155.56z" fill="#54bdd2" data-original="#000000" style="" class=""/><path d="m255.839 149.745-111.492 81.354 42.918 131.174 138.018-.283 42.38-131.349z" fill="#54bdd2" data-original="#000000" style="" class=""/><path d="m270.834 123.566 114.145 82.574 106.621-50.646c-37.172-87.205-121.346-149.591-220.766-155.274z" fill="#54bdd2" data-original="#000000" style="" class=""/><path d="m83.718 445.136 74.664-74.664-44.851-137.079-103.374-49.18c-6.65 22.879-10.209 47.071-10.158 72.102.155 74.845 32.416 142.117 83.719 188.821z" fill="#54bdd2" data-original="#000000" style="" class=""/><path d="m398.438 232.959-44.273 137.215 74.558 74.558c51.048-46.687 83.13-113.786 83.283-188.418.052-25.151-3.543-49.454-10.255-72.43z" fill="#54bdd2" data-original="#000000" style="" class=""/><path d="m333.539 391.973-154.55.317-71.807 71.807c41.947 30.02 93.327 47.69 148.822 47.688 55.71.002 107.27-17.809 149.307-48.041z" fill="#54bdd2" data-original="#000000" style="" class=""/></g></g></svg>
