<?xml version="1.0"?>
<svg xmlns="http://www.w3.org/2000/svg" xmlns:xlink="http://www.w3.org/1999/xlink" xmlns:svgjs="http://svgjs.com/svgjs" version="1.1" width="512" height="512" x="0" y="0" viewBox="0 0 478.912 478.912" style="enable-background:new 0 0 512 512" xml:space="preserve" class=""><g>
<g xmlns="http://www.w3.org/2000/svg">
	<g>
		<g>
			<path d="M464.284,15.382c-5.653-4.736-12.747-6.4-18.965-4.213l-78.656,31.029v138.475l78.581,31.051     c6.283,2.133,13.355,0.555,19.04-4.181c5.777-4.849,9.093-12.02,9.045-19.563V34.912     C473.367,27.381,470.053,20.224,464.284,15.382z" fill="#54bdd2" data-original="#000000" style="" class=""/>
			<path d="M186.898,257.76c9.733,16.008,17.708,33.02,23.787,50.741h17.408v-53.269h-42.667L186.898,257.76z" fill="#54bdd2" data-original="#000000" style="" class=""/>
			<path d="M170.695,4.224c-37.867-9.6-76.96-2.667-107.349,19.051C32.551,45.323,14.898,79.339,14.898,116.79     c-0.001,0.339-0.019,0.677-0.053,1.013c0.299,27.541,12.8,54.219,35.2,75.221c20.992,19.637,34.357,39.904,40.853,61.931     l35.904,122.411c1.025,3.366,2.855,6.43,5.333,8.928v31.531c4.306,10.364,11.771,19.106,21.333,24.981     c-0.181,7.2-11.893,14.837-20.171,14.837h-2.389c-5.715-0.145-10.756-3.784-12.693-9.163L55.196,287.862     c-3.381-8.629-9.088-14.859-16.491-17.995c-7.723-3.275-16.736-2.955-26.016,0.917c-5.553,1.967-8.459,8.064-6.492,13.617     c1.967,5.553,8.064,8.459,13.617,6.492c0.367-0.13,0.727-0.28,1.078-0.45c3.819-1.6,7.2-1.931,9.483-0.96     c2.027,0.853,3.701,2.933,4.971,6.155l62.933,160.576c5.408,13.792,18.133,22.699,32.544,22.699h2.389     c19.2,0,41.525-15.861,41.525-36.267v-50.485l11.189-31.637c5.449-14.983,6.024-31.305,1.643-46.635     c-1.028-1.51-1.619-3.274-1.707-5.099c-2.465-6.929-5.902-13.473-10.208-19.435l-3.947-5.739     c-6.39-8.785-11.231-18.597-14.315-29.013l-0.437-1.483c-2.403-7.601-1.485-15.864,2.528-22.752     c3.748-5.943,9.696-10.161,16.544-11.733c41.387-10.304,169.301-37.963,169.301-37.963h10.667V42.198H345.33L170.695,4.224z      M164.114,393.707v10.667H142.78v-11.733c2.223,0.683,4.533,1.043,6.859,1.067H164.114z" fill="#54bdd2" data-original="#000000" style="" class=""/>
		</g>
	</g>
</g>
<g xmlns="http://www.w3.org/2000/svg">
</g>
<g xmlns="http://www.w3.org/2000/svg">
</g>
<g xmlns="http://www.w3.org/2000/svg">
</g>
<g xmlns="http://www.w3.org/2000/svg">
</g>
<g xmlns="http://www.w3.org/2000/svg">
</g>
<g xmlns="http://www.w3.org/2000/svg">
</g>
<g xmlns="http://www.w3.org/2000/svg">
</g>
<g xmlns="http://www.w3.org/2000/svg">
</g>
<g xmlns="http://www.w3.org/2000/svg">
</g>
<g xmlns="http://www.w3.org/2000/svg">
</g>
<g xmlns="http://www.w3.org/2000/svg">
</g>
<g xmlns="http://www.w3.org/2000/svg">
</g>
<g xmlns="http://www.w3.org/2000/svg">
</g>
<g xmlns="http://www.w3.org/2000/svg">
</g>
<g xmlns="http://www.w3.org/2000/svg">
</g>
</g></svg>
