<?xml version="1.0"?>
<svg xmlns="http://www.w3.org/2000/svg" xmlns:xlink="http://www.w3.org/1999/xlink" xmlns:svgjs="http://svgjs.com/svgjs" version="1.1" width="512" height="512" x="0" y="0" viewBox="0 0 512 512" style="enable-background:new 0 0 512 512" xml:space="preserve" class=""><g>
<g xmlns="http://www.w3.org/2000/svg">
	<g>
		<g>
			<path d="M400,0H112C50.144,0,0,50.144,0,112v288c0,61.856,50.144,112,112,112h288c61.856,0,112-50.144,112-112V112     C512,50.144,461.856,0,400,0z M480,400c0,44.183-35.817,80-80,80H112c-44.183,0-80-35.817-80-80V112c0-44.183,35.817-80,80-80     h288c44.183,0,80,35.817,80,80V400z" fill="#ffffff" data-original="#000000" style="" class=""/>
			<path d="M144,146.88V96h-32v50.88c-24.875,9.165-37.61,36.76-28.445,61.635C88.415,221.704,98.811,232.1,112,236.96V416h32     V237.12c24.919-9.044,37.788-36.577,28.744-61.496C167.893,162.258,157.366,151.731,144,146.88z" fill="#ffffff" data-original="#000000" style="" class=""/>
			<path d="M272,275.04v-0.16V96h-32v178.88c-24.875,9.165-37.61,36.76-28.445,61.635c4.86,13.189,15.256,23.585,28.445,28.445V416     h32v-50.88c24.875-9.165,37.61-36.76,28.445-61.635C295.585,290.296,285.189,279.899,272,275.04z" fill="#ffffff" data-original="#000000" style="" class=""/>
			<path d="M400,179.04v-0.16V96h-32v82.88c-24.875,9.165-37.61,36.76-28.445,61.635c4.86,13.189,15.256,23.585,28.445,28.445V416     h32V269.12c24.875-9.165,37.61-36.76,28.445-61.635C423.585,194.296,413.189,183.9,400,179.04z" fill="#ffffff" data-original="#000000" style="" class=""/>
		</g>
	</g>
</g>
<g xmlns="http://www.w3.org/2000/svg">
</g>
<g xmlns="http://www.w3.org/2000/svg">
</g>
<g xmlns="http://www.w3.org/2000/svg">
</g>
<g xmlns="http://www.w3.org/2000/svg">
</g>
<g xmlns="http://www.w3.org/2000/svg">
</g>
<g xmlns="http://www.w3.org/2000/svg">
</g>
<g xmlns="http://www.w3.org/2000/svg">
</g>
<g xmlns="http://www.w3.org/2000/svg">
</g>
<g xmlns="http://www.w3.org/2000/svg">
</g>
<g xmlns="http://www.w3.org/2000/svg">
</g>
<g xmlns="http://www.w3.org/2000/svg">
</g>
<g xmlns="http://www.w3.org/2000/svg">
</g>
<g xmlns="http://www.w3.org/2000/svg">
</g>
<g xmlns="http://www.w3.org/2000/svg">
</g>
<g xmlns="http://www.w3.org/2000/svg">
</g>
</g></svg>
