<svg width="139" height="158" viewBox="0 0 139 158" fill="none" xmlns="http://www.w3.org/2000/svg">
<path d="M133.438 69.125H128.5C125.781 69.125 123.562 71.3333 123.562 74.0625H118.201C117.179 61.9983 112.762 50.9084 105.606 41.9879C104.005 31.1874 101.961 20.4348 98.875 9.875L89 0H29.75L19.875 9.875C16.8082 20.4348 14.7638 31.1775 13.1631 41.9783C5.02393 52.1233 0.125 64.9784 0.125 79C0.125 93.0219 5.02393 105.877 13.1631 116.022C14.7641 126.822 16.8085 137.566 19.875 148.125L29.75 158H89L98.875 148.125C101.961 137.565 104.005 126.813 105.606 116.022C112.762 107.092 117.178 96.0017 118.201 83.9375H123.562C123.562 86.6667 125.781 88.875 128.5 88.875H133.438C136.176 88.875 138.375 86.6667 138.375 83.9375V74.0625C138.375 71.3333 136.176 69.125 133.438 69.125ZM59.375 128.375C32.1607 128.375 10 106.224 10 79C10 51.7762 32.161 29.625 59.375 29.625C86.6084 29.625 108.75 51.7762 108.75 79C108.75 106.224 86.6084 128.375 59.375 128.375ZM63.5605 76.5312H89V81.4688H63.5601C62.9044 82.568 61.882 83.3589 60.6091 83.6869V88.875H58.1403V83.6869C56.8865 83.3589 55.845 82.5683 55.1991 81.4688H49.5V76.5312H55.1994C55.8456 75.4317 56.8871 74.6411 58.1406 74.3131V49.375H60.6094V74.3134C61.8823 74.6411 62.9047 75.432 63.5605 76.5312ZM49.5 98.75H69.25V108.625H49.5V98.75ZM54.4375 39.5C54.4375 36.7708 56.6557 34.5625 59.375 34.5625C62.0943 34.5625 64.3125 36.7708 64.3125 39.5C64.3125 42.2292 62.0943 44.4375 59.375 44.4375C56.6557 44.4375 54.4375 42.2292 54.4375 39.5ZM64.3125 118.5C64.3125 121.229 62.0943 123.438 59.375 123.438C56.6557 123.438 54.4375 121.229 54.4375 118.5C54.4375 115.771 56.6557 113.562 59.375 113.562C62.0943 113.562 64.3125 115.771 64.3125 118.5ZM24.8125 79C24.8125 81.7292 22.6138 83.9375 19.875 83.9375C17.1554 83.9375 14.9375 81.7292 14.9375 79C14.9375 76.2804 17.1557 74.0625 19.875 74.0625C22.6138 74.0625 24.8125 76.2807 24.8125 79ZM93.9375 79C93.9375 76.2804 96.1557 74.0625 98.875 74.0625C101.614 74.0625 103.812 76.2807 103.812 79C103.812 81.7292 101.614 83.9375 98.875 83.9375C96.1557 83.9375 93.9375 81.7292 93.9375 79Z" fill="#54BDD2"/>
</svg>
